<?xml version="1.0" encoding="UTF-8"?>
<svg version="1.1" xmlns="http://www.w3.org/2000/svg" width="295" height="297">
<path d="M0 0 C97.35 0 194.7 0 295 0 C295 98.01 295 196.02 295 297 C197.65 297 100.3 297 0 297 C0 198.99 0 100.98 0 0 Z " fill="#FDFAF3" transform="translate(0,0)"/>
<path d="M0 0 C10.52821058 -0.06999162 21.0563644 -0.123058 31.58476162 -0.15543652 C36.47529345 -0.17098877 41.36566429 -0.19203236 46.25610352 -0.22631836 C50.98941151 -0.25928915 55.72256619 -0.27693114 60.4559803 -0.28463173 C62.24778718 -0.29010843 64.03958716 -0.30079936 65.83132744 -0.31719017 C84.40738445 -0.48012279 105.39447572 0.84643105 121 12 C124.41124018 10.58845234 125.8456223 8.93778777 128 6 C128.66 6 129.32 6 130 6 C130.32613618 10.67461851 129.70582788 13.16674383 127 17 C127.3609375 17.48210937 127.721875 17.96421875 128.09375 18.4609375 C128.5578125 19.09257813 129.021875 19.72421875 129.5 20.375 C129.9640625 21.00148438 130.428125 21.62796875 130.90625 22.2734375 C132 24 132 24 132 26 C132.66 26.33 133.32 26.66 134 27 C138.02327194 34.60361486 138.17007097 43.72075123 136.34375 51.9609375 C132.33433693 64.30025187 124.03564278 71.88256321 112.69140625 77.6953125 C111.80324219 78.12585938 110.91507812 78.55640625 110 79 C110.82242188 79.20753906 111.64484375 79.41507812 112.4921875 79.62890625 C124.19049092 82.85742186 134.02487394 88.34552027 140.21484375 99.11328125 C145.13874093 108.69823412 145.53603912 119.1542856 142.375 129.4375 C140.36500931 134.69873878 137.75013121 138.82412926 134 143 C133.48695313 143.60457031 132.97390625 144.20914063 132.4453125 144.83203125 C123.22396883 154.95786078 110.26754133 158.77483927 97 160 C93.72819722 160.12951265 90.46151055 160.126928 87.1875 160.11352539 C85.76660316 160.11374443 85.76660316 160.11374443 84.31700134 160.1139679 C81.21131027 160.11327575 78.10568049 160.10551626 75 160.09765625 C72.83667026 160.09578959 70.67334009 160.09436686 68.51000977 160.09336853 C62.83505065 160.08956291 57.1601174 160.07974941 51.48516846 160.06866455 C45.68673045 160.0584083 39.88828823 160.0538619 34.08984375 160.04882812 C22.72655118 160.0381253 11.36327775 160.02107248 0 160 C0 158.68 0 157.36 0 156 C0.7734375 155.98582031 1.546875 155.97164062 2.34375 155.95703125 C9.01468592 155.65155522 15.23173294 155.14728316 20 150 C22.74020362 144.09012573 22.28807573 137.9299663 22.2746582 131.55639648 C22.27976913 130.30534119 22.28488007 129.05428589 22.29014587 127.76531982 C22.30164168 124.34594678 22.30411934 120.92681661 22.30158257 117.50744128 C22.30051058 114.64947502 22.30540183 111.79153098 22.310188 108.93356949 C22.32126818 102.19145445 22.32172833 95.44939513 22.31567383 88.70727539 C22.3096281 81.75666725 22.32196351 74.80626123 22.3432439 67.85568756 C22.36086236 61.88100249 22.36686106 55.90638177 22.36360615 49.93167168 C22.36179428 46.36623606 22.36442026 42.8009448 22.37832069 39.23553276 C22.39323542 35.26167741 22.38392675 31.28807967 22.37231445 27.31420898 C22.37995819 26.13536636 22.38760193 24.95652374 22.39547729 23.74195862 C22.38495583 22.11651627 22.38495583 22.11651627 22.3742218 20.45823669 C22.37447341 19.04990397 22.37447341 19.04990397 22.37473011 17.61312008 C21.81375476 13.7012488 20.03155569 11.05284927 17.296875 8.26171875 C14.08380946 6.49671846 10.83698228 6.18204732 7.25 5.8125 C6.20392578 5.6897168 6.20392578 5.6897168 5.13671875 5.56445312 C3.42573224 5.36522867 1.71299963 5.18110071 0 5 C0 3.35 0 1.7 0 0 Z " fill="#040404" transform="translate(105,85)"/>
<path d="M0 0 C7.10469578 7.26616614 10.71617095 15.56898091 11.125 25.6875 C10.917034 35.49860196 6.66036416 42.09333168 -0.25 48.8125 C-4.48740357 52.75497065 -8.2663805 55.01544925 -13.875 56.625 C-14.97110596 56.94126343 -14.97110596 56.94126343 -16.08935547 57.26391602 C-28.21952533 60.42236172 -48.69245659 61.5912717 -60.25 55.8125 C-60.25 34.0325 -60.25 12.2525 -60.25 -10.1875 C-39.33369262 -13.67355123 -17.89881661 -12.04728041 0 0 Z " fill="#FCF9F2" transform="translate(211.25,178.1875)"/>
<path d="M0 0 C4.16643643 3.73846411 7.84030324 7.77527904 10 13 C9.625 15.25 9.625 15.25 9 17 C9.66 17 10.32 17 11 17 C12.74280974 18.74280974 12.21376316 21.06700657 12.25 23.4375 C12.13529736 33.10693253 9.85405572 40.97987685 3 48 C-7.39497054 57.43247327 -21.74366895 57.47094484 -35.0625 57.25 C-36.34060547 57.24484375 -37.61871094 57.2396875 -38.93554688 57.234375 C-44.1750187 57.19041509 -48.8401555 57.0319689 -54 56 C-54 35.54 -54 15.08 -54 -6 C-36.36577024 -11.87807659 -15.64849852 -10.2899556 0 0 Z " fill="#F9F6EF" transform="translate(205,102)"/>
<path d="M0 0 C1.98 0 3.96 0 6 0 C6.75506836 1.80464722 6.75506836 1.80464722 7.52539062 3.64575195 C9.43370594 8.20655088 11.34230345 12.76723166 13.25097656 17.32788086 C14.06941021 19.28357894 14.88777222 21.23930701 15.70605469 23.19506836 C16.50106727 25.0951875 17.29623332 26.99524242 18.09155273 28.89523315 C18.88467421 30.79057458 19.67715479 32.68618433 20.46899414 34.58206177 C22.41940631 39.24738773 24.38365386 43.9059021 26.37890625 48.55224609 C26.93910461 49.86276192 26.93910461 49.86276192 27.51062012 51.19975281 C28.21550979 52.84671645 28.92468168 54.49185611 29.63879395 56.13484192 C32 61.66456358 32 61.66456358 32 65 C23.75 65 15.5 65 7 65 C1.26829268 53.53658537 1.26829268 53.53658537 -0.8125 48.5625 C-1.23144531 47.57378906 -1.65039062 46.58507813 -2.08203125 45.56640625 C-3 43 -3 43 -3 40 C-3.66 40 -4.32 40 -5 40 C-5.12761719 40.72993164 -5.25523438 41.45986328 -5.38671875 42.21191406 C-5.96893406 44.85876871 -6.75725519 47.11945972 -7.8125 49.609375 C-8.16570312 50.44597656 -8.51890625 51.28257813 -8.8828125 52.14453125 C-9.25148438 53.00433594 -9.62015625 53.86414063 -10 54.75 C-10.55300781 56.06291016 -10.55300781 56.06291016 -11.1171875 57.40234375 C-13.86076482 63.86076482 -13.86076482 63.86076482 -15 65 C-17.01964199 65.07244053 -19.04167124 65.08377188 -21.0625 65.0625 C-22.16722656 65.05347656 -23.27195312 65.04445313 -24.41015625 65.03515625 C-25.26480469 65.02355469 -26.11945313 65.01195313 -27 65 C-25.21214757 59.16517811 -22.76995307 53.64006931 -20.3515625 48.046875 C-19.89776215 46.99147522 -19.44396179 45.93607544 -18.97640991 44.84869385 C-17.5282374 41.48146816 -16.07684609 38.1156432 -14.625 34.75 C-13.18069874 31.39846803 -11.73712684 28.04662681 -10.29501343 24.69415283 C-9.39926516 22.61214336 -8.50222779 20.53068784 -7.60366821 18.44989014 C-4.97191725 12.33683693 -2.43806024 6.19289127 0 0 Z " fill="#040404" transform="translate(130,11)"/>
<path d="M0 0 C0.495 1.485 0.495 1.485 1 3 C4.3 3 7.6 3 11 3 C10.26795587 5.92817654 9.51569835 8.36232395 8.37109375 11.109375 C8.08935303 11.78967773 7.8076123 12.46998047 7.51733398 13.17089844 C7.16098877 14.02200195 6.80464355 14.87310547 6.4375 15.75 C5.303125 18.4725 4.16875 21.195 3 24 C10.26 24 17.52 24 25 24 C25 27.3 25 30.6 25 34 C11.635 34.495 11.635 34.495 -2 35 C-3.97657915 39.64432339 -5.95245134 44.28893431 -7.92651367 48.93432617 C-8.59829672 50.51458183 -9.27049454 52.09466124 -9.94311523 53.67456055 C-10.90978314 55.94533836 -11.87495825 58.2167456 -12.83984375 60.48828125 C-13.14091537 61.19463211 -13.441987 61.90098297 -13.75218201 62.6287384 C-16.09693521 68.15525037 -17.89771913 72.91272647 -17 79 C-14.35592122 82.58839263 -11.11928783 84.64919638 -6.7109375 85.37890625 C-5.94007812 85.43949219 -5.16921875 85.50007813 -4.375 85.5625 C-0.19444444 85.90277778 -0.19444444 85.90277778 2 87 C2 88.65 2 90.3 2 92 C-11.86 92 -25.72 92 -40 92 C-40.495 92.99 -40.495 92.99 -41 94 C-41 93.34 -41 92.68 -41 92 C-44.63 92 -48.26 92 -52 92 C-52 90.35 -52 88.7 -52 87 C-50.783125 86.54625 -49.56625 86.0925 -48.3125 85.625 C-46.87314194 85.08829021 -45.43576724 84.54624303 -44 84 C-43.16210938 83.72542969 -42.32421875 83.45085937 -41.4609375 83.16796875 C-38.52229693 81.77328061 -37.25143534 80.28000904 -35.3125 77.6875 C-34.73113281 76.92824219 -34.14976563 76.16898437 -33.55078125 75.38671875 C-31.98955721 72.9839281 -30.99168258 70.6802232 -30 68 C-29.608125 67.278125 -29.21625 66.55625 -28.8125 65.8125 C-28.544375 65.214375 -28.27625 64.61625 -28 64 C-28.33 63.34 -28.66 62.68 -29 62 C-28.11054687 61.22849609 -28.11054687 61.22849609 -27.203125 60.44140625 C-24.58968553 57.54530755 -23.20105472 54.50220841 -21.75 50.9375 C-21.481875 50.31294922 -21.21375 49.68839844 -20.9375 49.04492188 C-19.74597069 46.19680207 -19 44.11788304 -19 41 C-18.05318664 39.57090195 -17.10145294 38.1446803 -16.11853027 36.74017334 C-14.10564322 33.60858855 -12.7617286 30.18310613 -11.328125 26.7578125 C-11.00084412 25.98944061 -10.67356323 25.22106873 -10.33636475 24.42941284 C-9.3018381 21.99699684 -8.2758046 19.56110525 -7.25 17.125 C-6.54613302 15.4659081 -5.84171143 13.80705137 -5.13671875 12.1484375 C-3.41805363 8.10164971 -1.7069914 4.05172495 0 0 Z " fill="#090909" transform="translate(94,96)"/>
<path d="M0 0 C3.09244792 0.03255208 6.18489583 0.06510417 9.27734375 0.09765625 C13.35072897 8.75063023 17.20136763 17.46772467 20.85693359 26.30371094 C21.66711804 28.25829956 22.48580817 30.20919686 23.3046875 32.16015625 C23.82473416 33.41254652 24.34428505 34.6651428 24.86328125 35.91796875 C25.32782715 37.03445801 25.79237305 38.15094727 26.27099609 39.30126953 C27.27734375 42.09765625 27.27734375 42.09765625 27.27734375 45.09765625 C21.94866392 46.20706992 16.8145252 46.21313694 11.40234375 46.16015625 C10.52320313 46.15564453 9.6440625 46.15113281 8.73828125 46.14648438 C6.58460572 46.13477962 4.43096558 46.11684694 2.27734375 46.09765625 C-3.16928375 35.64624134 -4.55486928 27.42712774 -4.16015625 15.78515625 C-4.1385567 14.36397102 -4.11966443 12.94274199 -4.10351562 11.52148438 C-3.91853735 0.14055012 -3.91853735 0.14055012 0 0 Z " fill="#030303" transform="translate(164.72265625,102.90234375)"/>
<path d="M0 0 C4.52910172 3.14520953 6.71180319 6.07157609 9 11 C8.75 13.4375 8.75 13.4375 8 15 C8.66 15 9.32 15 10 15 C11 16 11 16 11.0625 19.5625 C11.041875 20.696875 11.02125 21.83125 11 23 C7.5625881 24.28902946 4.51661142 25.0806371 0.875 25.3125 C-3.12748464 25.6206533 -3.12748464 25.6206533 -5.375 28.5625 C-5.91125 29.366875 -6.4475 30.17125 -7 31 C-7.66 31 -8.32 31 -9 31 C-10.15570704 34.46712111 -10.32835293 37.5414956 -10.5625 41.1875 C-10.68818359 43.09595703 -10.68818359 43.09595703 -10.81640625 45.04296875 C-10.90728516 46.50669922 -10.90728516 46.50669922 -11 48 C-11.33 48 -11.66 48 -12 48 C-15.12673838 30.04238091 -8.85780994 15.14022139 0 0 Z " fill="#DBD9D3" transform="translate(206,104)"/>
<path d="M0 0 C9.99469166 0.20367639 21.41961889 3.727657 28.875 10.4375 C28.875 10.7675 28.875 11.0975 28.875 11.4375 C14.025 11.4375 -0.825 11.4375 -16.125 11.4375 C-16.125 9.4575 -16.125 7.4775 -16.125 5.4375 C-15.42632812 5.24414062 -14.72765625 5.05078125 -14.0078125 4.8515625 C-13.09773437 4.59117187 -12.18765625 4.33078125 -11.25 4.0625 C-10.34507812 3.80726563 -9.44015625 3.55203125 -8.5078125 3.2890625 C-4.94305891 2.01510138 -3.99420014 0.11508712 0 0 Z " fill="#0C0B0B" transform="translate(177.125,176.5625)"/>
<path d="M0 0 C0.66 0 1.32 0 2 0 C3.49383784 7.01454292 2.64032278 10.91488479 -1 17 C-2.54625253 20.16981769 -3.00962726 21.7448775 -2.875 25.3125 C-3.03366385 29.99308356 -4.68200971 33.0159542 -7 37 C-4.525 36.505 -4.525 36.505 -2 36 C-4.88494286 43.69318097 -8.3552989 51.80580538 -15 57 C-17.72265625 57.21875 -17.72265625 57.21875 -20 57 C-22.46017056 47.26914681 -22.69342189 37.88051671 -21 28 C-20.73409033 23.23708863 -20.80170113 18.6434081 -22 14 C-21.01 15.32 -20.02 16.64 -19 18 C-18.01 15.36 -17.02 12.72 -16 10 C-14.67511587 13.97465238 -15.80063026 16.8509628 -16.875 20.75 C-20.13980245 32.81851114 -20.15527388 43.62206561 -19 56 C-18.34 56 -17.68 56 -17 56 C-16.92007813 55.00742188 -16.84015625 54.01484375 -16.7578125 52.9921875 C-16.11609456 48.48202152 -14.08336184 45.04787858 -11.875 41.125 C-8.49964749 34.81354821 -7.24265781 31.1465249 -9 24 C-8.65025541 21.26033406 -8.22404064 19.44808128 -7 17 C-6.34 17.99 -5.68 18.98 -5 20 C-4.72285156 18.72382813 -4.44570312 17.44765625 -4.16015625 16.1328125 C-3.79441043 14.46351107 -3.42851738 12.7942419 -3.0625 11.125 C-2.88009766 10.28324219 -2.69769531 9.44148437 -2.50976562 8.57421875 C-2.33251953 7.76855469 -2.15527344 6.96289062 -1.97265625 6.1328125 C-1.81031494 5.38918457 -1.64797363 4.64555664 -1.48071289 3.87939453 C-1 2 -1 2 0 0 Z " fill="#A3A29D" transform="translate(69,123)"/>
<path d="M0 0 C3.5386994 1.65139305 4.81070153 2.71605229 7 6 C7.46797583 10.21178243 7.46565795 12.28599114 5.125 15.875 C2.28058592 18.71941408 0.6112568 19.20354172 -3.3125 19.375 C-6.86905532 19.31189983 -7.93115282 19.04355638 -11.0625 17.0625 C-13.31003311 13.50994766 -13.7961723 11.3081864 -13.546875 7.16015625 C-13 5 -13 5 -10.4375 1.9375 C-6.4689849 -0.29929942 -4.48262803 -0.65201862 0 0 Z " fill="#51504F" transform="translate(140,259)"/>
<path d="M0 0 C12.17981073 -0.49211356 12.17981073 -0.49211356 15.890625 1.734375 C18.23182434 4.24899652 18.66057614 5.13079614 18.5625 8.5 C18.3812822 11.74060072 18.14326063 12.80239913 16.1875 15.5 C11.1442508 18.95822802 5.89493984 18.06935223 0 18 C0 12.06 0 6.12 0 0 Z " fill="#4A4947" transform="translate(81,260)"/>
<path d="M0 0 C10.7421875 -0.1953125 10.7421875 -0.1953125 14 0 C14.66 0.66 15.32 1.32 16 2 C15.66666667 4.33333333 15.33333333 6.66666667 15 9 C15.66 9.66 16.32 10.32 17 11 C16.67028521 14.29714793 16.3773161 15.6226839 14 18 C9.32380812 18.28034724 4.68783389 18.08523334 0 18 C0 12.06 0 6.12 0 0 Z " fill="#4C4B49" transform="translate(174,260)"/>
<path d="M0 0 C3 1 3 1 4.1875 2.9375 C6.05736557 9.98545483 5.04204625 16.10809391 3 23 C2.33495654 30.58149548 4.2649431 37.6466636 6 45 C6.99 44.505 6.99 44.505 8 44 C7.70351563 44.54140625 7.40703125 45.0828125 7.1015625 45.640625 C5.85906483 48.30186114 5.11876874 50.91015574 4.375 53.75 C4.11460938 54.73484375 3.85421875 55.7196875 3.5859375 56.734375 C3.29589844 57.85585937 3.29589844 57.85585937 3 59 C1.99934699 55.88685731 2.11420919 54.11223797 3 51 C3.70423142 43.52431267 2.85250177 35.97159948 0 29 C-2.79514598 26.60869555 -2.79514598 26.60869555 -6 25 C-8.84960107 21.82388214 -11 19.34508519 -11 15 C-7.57440916 16.20358597 -5.46741391 17.35892646 -3 20 C-2.95101562 19.05898437 -2.90203125 18.11796875 -2.8515625 17.1484375 C-2.77679688 15.90320313 -2.70203125 14.65796875 -2.625 13.375 C-2.52058594 11.53035156 -2.52058594 11.53035156 -2.4140625 9.6484375 C-2.0185513 6.16346145 -1.23738151 3.26950399 0 0 Z " fill="#A1A09B" transform="translate(56,63)"/>
<path d="M0 0 C2 2 2 2 2.22265625 4.03125 C1.73304864 11.57837214 -1.18988636 16.27617482 -6 22 C-6.54785156 22.42796875 -7.09570312 22.8559375 -7.66015625 23.296875 C-9.8481375 26.07809899 -9.76832488 29.39697198 -10.0625 32.8125 C-11.2469044 45.53605223 -11.2469044 45.53605223 -15.625 50.375 C-16.40875 51.24125 -17.1925 52.1075 -18 53 C-18 49.8525253 -17.62585597 49.06125915 -16.125 46.4375 C-12.7346185 39.89718959 -11.26555654 32.34443457 -12 25 C-12.99307821 23.66150329 -13.99357052 22.32848691 -15 21 C-15.41807394 18.96875188 -15.6276776 16.97071031 -15.81640625 14.90625 C-16.01274113 12.86770907 -16.4268169 10.96519921 -17 9 C-16.34 9 -15.68 9 -15 9 C-13.68 11.64 -12.36 14.28 -11 17 C-8.55754698 13.33632047 -6.58224787 9.48898316 -4.53515625 5.59375 C-3.18980606 3.32069013 -1.96361576 1.73501572 0 0 Z " fill="#9A9994" transform="translate(245,30)"/>
<path d="M0 0 C4.7796668 4.7796668 6.37240882 9.45279278 6.41015625 16.05859375 C6.39855469 16.74050781 6.38695312 17.42242187 6.375 18.125 C6.38660156 18.81464844 6.39820313 19.50429688 6.41015625 20.21484375 C6.38387281 24.79692342 5.36722734 27.18977766 3 31 C2.487511 33.64466251 2.0904294 36.14794753 1.8125 38.8125 C1.73064453 39.50537109 1.64878906 40.19824219 1.56445312 40.91210938 C1.36575707 42.60686984 1.18140797 44.30330194 1 46 C0.34 45.67 -0.32 45.34 -1 45 C-0.85691406 43.96939453 -0.85691406 43.96939453 -0.7109375 42.91796875 C-0.54464844 41.56638672 -0.54464844 41.56638672 -0.375 40.1875 C-0.25898438 39.29417969 -0.14296875 38.40085938 -0.0234375 37.48046875 C0.23500743 34.74309609 0.23500743 34.74309609 -2 32 C-1.34 32 -0.68 32 0 32 C-0.99 29.69 -1.98 27.38 -3 25 C-3.66 25.66 -4.32 26.32 -5 27 C-5.33 23.7 -5.66 20.4 -6 17 C-3 18 -3 18 -1 21 C-0.67 14.07 -0.34 7.14 0 0 Z " fill="#585755" transform="translate(206,43)"/>
<path d="M0 0 C0.33 0 0.66 0 1 0 C1.1799928 5.21979128 0.97094808 9.07262981 -1 14 C-0.07380859 13.45859375 -0.07380859 13.45859375 0.87109375 12.90625 C6.96886091 9.56500772 11.06269398 8.44053984 18 9 C14.51633955 13.62017379 11.94885671 16.90735285 6 18 C4.2365625 17.9071875 4.2365625 17.9071875 2.4375 17.8125 C-1.13168805 17.6692518 -1.13168805 17.6692518 -3.6875 20.1875 C-4.450625 21.115625 -5.21375 22.04375 -6 23 C-6.763125 23.928125 -7.52625 24.85625 -8.3125 25.8125 C-8.869375 26.534375 -9.42625 27.25625 -10 28 C-10.66 27.67 -11.32 27.34 -12 27 C-11.01 25.515 -11.01 25.515 -10 24 C-9.79375 22.7625 -9.5875 21.525 -9.375 20.25 C-7.91139551 12.89538746 -3.65654978 6.45423554 0 0 Z " fill="#C3C1BC" transform="translate(250,44)"/>
<path d="M0 0 C0.66 0 1.32 0 2 0 C2.99 3.96 3.98 7.92 5 12 C6.7634375 10.1128125 6.7634375 10.1128125 8.5625 8.1875 C12.18899067 4.53515199 15.14606804 2.61797732 20 1 C19.49252548 4.72147984 19.00882651 7.8024059 17 11 C14.9765625 12.44921875 14.9765625 12.44921875 12.625 13.6875 C11.85414062 14.10386719 11.08328125 14.52023438 10.2890625 14.94921875 C8.18599922 15.9146181 6.25902842 16.53065848 4 17 C3.814375 18.6396875 3.814375 18.6396875 3.625 20.3125 C3 24 3 24 1 27 C-2.65914957 18.53821663 -1.08201773 8.90732457 0 0 Z " fill="#D4D1CC" transform="translate(66,74)"/>
<path d="M0 0 C2.26171875 0.0390625 2.26171875 0.0390625 5 1 C6.54151172 3.49862055 7.68684386 5.70125607 8.8125 8.375 C9.12380859 9.06078125 9.43511719 9.7465625 9.75585938 10.453125 C11.08111149 13.44732099 12 15.69419511 12 19 C10.68 19 9.36 19 8 19 C7.67 17.68 7.34 16.36 7 15 C5.54054712 15.08708669 4.08234132 15.19526907 2.625 15.3125 C1.40683594 15.39951172 1.40683594 15.39951172 0.1640625 15.48828125 C-2.37921338 15.82990528 -2.37921338 15.82990528 -4 19 C-5.32 19 -6.64 19 -8 19 C-6.00386732 12.2813095 -3.2708579 6.19265192 0 0 Z " fill="#4E4D4C" transform="translate(29,259)"/>
<path d="M0 0 C1.65 0 3.3 0 5 0 C5.33 4.62 5.66 9.24 6 14 C7.98 14 9.96 14 12 14 C12.33 9.71 12.66 5.42 13 1 C14.32 1 15.64 1 17 1 C17.10823773 3.24893954 17.18569645 5.49937575 17.25 7.75 C17.29640625 9.00296875 17.3428125 10.2559375 17.390625 11.546875 C17 15 17 15 15.234375 17.421875 C12.23819274 19.53805968 10.46357177 19.57086195 6.90234375 19.3984375 C4.00233861 18.79104423 2.71691329 17.33500208 1 15 C-0.44207941 12.11584117 -0.09394887 9.58278472 -0.0625 6.375 C-0.05347656 5.18648438 -0.04445312 3.99796875 -0.03515625 2.7734375 C-0.02355469 1.85820312 -0.01195312 0.94296875 0 0 Z " fill="#545352" transform="translate(51,259)"/>
<path d="M0 0 C7.9529703 -0.62376238 7.9529703 -0.62376238 11.9375 1.75 C14 4 14 4 14.875 6 C16.70682864 9.25658425 19.72931143 10.30408741 23 12 C17.41731717 17.88444947 17.41731717 17.88444947 12.95703125 18.09765625 C12.24933594 18.08605469 11.54164062 18.07445312 10.8125 18.0625 C8.9253125 18.0315625 8.9253125 18.0315625 7 18 C6.67 17.01 6.34 16.02 6 15 C8.97 13.35 11.94 11.7 15 10 C13.453125 9.773125 11.90625 9.54625 10.3125 9.3125 C5.52461813 8.36171495 2.96386374 7.05061378 0 3 C0 2.01 0 1.02 0 0 Z " fill="#545351" transform="translate(10,110)"/>
<path d="M0 0 C0.99 0.33 1.98 0.66 3 1 C2.67 2.32 2.34 3.64 2 5 C-0.64 4.67 -3.28 4.34 -6 4 C-5.363603 7.0836385 -5.363603 7.0836385 -3.1875 7.9140625 C-2.465625 8.14867187 -1.74375 8.38328125 -1 8.625 C2.93048128 9.93048128 2.93048128 9.93048128 4 11 C4.28951263 13.75037003 4.45978015 15.3679895 2.80078125 17.6484375 C0.40523112 19.4463992 -1.09790952 19.33732225 -4.0625 19.25 C-4.94035156 19.23453125 -5.81820313 19.2190625 -6.72265625 19.203125 C-9 19 -9 19 -11 18 C-10.67 16.68 -10.34 15.36 -10 14 C-7.03 14.33 -4.06 14.66 -1 15 C-1 14.34 -1 13.68 -1 13 C-1.55429687 12.80664062 -2.10859375 12.61328125 -2.6796875 12.4140625 C-3.40414063 12.15367187 -4.12859375 11.89328125 -4.875 11.625 C-5.95394531 11.24214844 -5.95394531 11.24214844 -7.0546875 10.8515625 C-9 10 -9 10 -11 8 C-10.8125 5 -10.8125 5 -10 2 C-6.31884463 -0.45410358 -4.34706402 -0.23287843 0 0 Z " fill="#52514F" transform="translate(278,259)"/>
<path d="M0 0 C0.99 0.33 1.98 0.66 3 1 C2.67 2.32 2.34 3.64 2 5 C-0.64 4.67 -3.28 4.34 -6 4 C-5.363603 7.0836385 -5.363603 7.0836385 -3.1875 7.9140625 C-2.465625 8.14867187 -1.74375 8.38328125 -1 8.625 C2.93048128 9.93048128 2.93048128 9.93048128 4 11 C4.28951263 13.75037003 4.45978015 15.3679895 2.80078125 17.6484375 C0.40523112 19.4463992 -1.09790952 19.33732225 -4.0625 19.25 C-4.94035156 19.23453125 -5.81820312 19.2190625 -6.72265625 19.203125 C-9 19 -9 19 -11 18 C-10.67 16.68 -10.34 15.36 -10 14 C-7.03 14.33 -4.06 14.66 -1 15 C-1 14.34 -1 13.68 -1 13 C-1.55429688 12.80664062 -2.10859375 12.61328125 -2.6796875 12.4140625 C-3.40414062 12.15367187 -4.12859375 11.89328125 -4.875 11.625 C-5.95394531 11.24214844 -5.95394531 11.24214844 -7.0546875 10.8515625 C-9 10 -9 10 -11 8 C-10.8125 5 -10.8125 5 -10 2 C-6.31884463 -0.45410358 -4.34706402 -0.23287843 0 0 Z " fill="#52514F" transform="translate(253,259)"/>
<path d="M0 0 C4.51854431 1.98972775 7.21445201 4.98122179 10 9 C10.875 11.9375 10.875 11.9375 11 14 C10.54625 13.38125 10.0925 12.7625 9.625 12.125 C8.02891081 9.94080167 8.02891081 9.94080167 6 8 C6.29769287 8.71542969 6.59538574 9.43085937 6.90209961 10.16796875 C8.25739327 13.4412107 9.59753051 16.72045666 10.9375 20 C11.64036133 21.68802734 11.64036133 21.68802734 12.35742188 23.41015625 C14.77016035 29.34653437 16.6304921 34.58471384 17 41 C15.35 39.35 13.7 37.7 12 36 C12.66 36 13.32 36 14 36 C13.72382467 34.05925139 13.72382467 34.05925139 13 32 C12.01 31.34 11.02 30.68 10 30 C10 29.34 10 28.68 10 28 C9.34 27.34 8.68 26.68 8 26 C7.34 25.34 6.68 24.68 6 24 C6 23.34 6 22.68 6 22 C5.34 22 4.68 22 4 22 C3.67 22.66 3.34 23.32 3 24 C2.34 21.69 1.68 19.38 1 17 C3.475 17.99 3.475 17.99 6 19 C5.65066406 18.04738281 5.30132812 17.09476563 4.94140625 16.11328125 C4.48158334 14.84642221 4.02195838 13.5794913 3.5625 12.3125 C3.21735352 11.37374023 3.21735352 11.37374023 2.86523438 10.41601562 C1.61946333 6.96757692 0.60195551 3.6186521 0 0 Z " fill="#7E7C79" transform="translate(26,90)"/>
<path d="M0 0 C0.66 0 1.32 0 2 0 C3.49383784 7.01454292 2.64032278 10.91488479 -1 17 C-2.54625253 20.16981769 -3.00962726 21.7448775 -2.875 25.3125 C-3.03366385 29.99308356 -4.68200971 33.0159542 -7 37 C-6.01 37 -5.02 37 -4 37 C-6.475 39.475 -6.475 39.475 -9 42 C-8.67 42.99 -8.34 43.98 -8 45 C-9.98 45.66 -11.96 46.32 -14 47 C-13.34730902 43.68341909 -12.05617783 41.22873305 -10.375 38.3125 C-8.02776473 33.76556996 -7.73387121 30.94343299 -8.6640625 25.9765625 C-9.23316885 22.62809954 -8.49046863 19.98093726 -7 17 C-6.34 17.99 -5.68 18.98 -5 20 C-4.72285156 18.72382813 -4.44570312 17.44765625 -4.16015625 16.1328125 C-3.79441043 14.46351107 -3.42851738 12.7942419 -3.0625 11.125 C-2.88009766 10.28324219 -2.69769531 9.44148437 -2.50976562 8.57421875 C-2.33251953 7.76855469 -2.15527344 6.96289062 -1.97265625 6.1328125 C-1.81031494 5.38918457 -1.64797363 4.64555664 -1.48071289 3.87939453 C-1 2 -1 2 0 0 Z " fill="#74726F" transform="translate(69,123)"/>
<path d="M0 0 C1.65 0 3.3 0 5 0 C5 4.95 5 9.9 5 15 C7.97 15 10.94 15 14 15 C14 16.32 14 17.64 14 19 C9.38 19 4.76 19 0 19 C0 12.73 0 6.46 0 0 Z " fill="#5C5B59" transform="translate(202,259)"/>
<path d="M0 0 C3 1 3 1 4.1875 3.0625 C5.23642055 6.85475122 5.13319932 10.07062002 5 14 C4.67 14 4.34 14 4 14 C3.86722656 13.28972656 3.73445313 12.57945313 3.59765625 11.84765625 C3.42105469 10.92855469 3.24445312 10.00945312 3.0625 9.0625 C2.88847656 8.14597656 2.71445312 7.22945313 2.53515625 6.28515625 C2.22285012 4.04710156 2.22285012 4.04710156 1 3 C-0.09517892 11.35073925 -0.87727522 19.71615062 1 28 C-4.58885509 26.93545617 -6.70406341 24.35468225 -9.8984375 19.97265625 C-11 18 -11 18 -11 15 C-7.57440916 16.20358597 -5.46741391 17.35892646 -3 20 C-2.95101562 19.05898437 -2.90203125 18.11796875 -2.8515625 17.1484375 C-2.77679688 15.90320313 -2.70203125 14.65796875 -2.625 13.375 C-2.52058594 11.53035156 -2.52058594 11.53035156 -2.4140625 9.6484375 C-2.0185513 6.16346145 -1.23738151 3.26950399 0 0 Z " fill="#6A6966" transform="translate(56,63)"/>
<path d="M0 0 C2 2 2 2 2.25 5.5 C2 9 2 9 0 11 C-3.5 11.3125 -3.5 11.3125 -7 11 C-9.15502531 7.76746204 -9.46856135 6.74849077 -9 3 C-6.73157826 -0.65467947 -4.03373275 -0.4291205 0 0 Z " fill="#FAF7F0" transform="translate(140,263)"/>
<path d="M0 0 C0.66 0 1.32 0 2 0 C2.33773437 0.61488281 2.67546875 1.22976562 3.0234375 1.86328125 C3.46945313 2.67152344 3.91546875 3.47976562 4.375 4.3125 C4.81585938 5.11300781 5.25671875 5.91351563 5.7109375 6.73828125 C6.73513335 8.53527943 7.85267138 10.27900708 9 12 C8.72699989 16.71545646 7.78319434 21.34488863 7 26 C6.87625 27.02996094 6.7525 28.05992188 6.625 29.12109375 C5.75101547 35.68508169 3.88979521 39.49462265 -1 44 C-1 40.8525253 -0.62585597 40.06125915 0.875 37.4375 C4.2653815 30.89718959 5.73444346 23.34443457 5 16 C4.00692179 14.66150329 3.00642948 13.32848691 2 12 C1.58192606 9.96875188 1.3723224 7.97071031 1.18359375 5.90625 C0.98725887 3.86770907 0.5731831 1.96519921 0 0 Z " fill="#93918D" transform="translate(228,39)"/>
<path d="M0 0 C0.66 0 1.32 0 2 0 C5.16130865 9.69467985 5.63514432 17.34735689 2 27 C-3.19881476 19.20177786 -1.07976159 8.88875169 0 0 Z " fill="#4B4A48" transform="translate(66,74)"/>
<path d="M0 0 C6.32597793 -0.35807422 6.32597793 -0.35807422 9 1.0625 C10.59967215 4.16186478 9.73342508 6.69958714 9 10 C8 11 8 11 6.15234375 11.09765625 C4.1015625 11.06510417 2.05078125 11.03255208 0 11 C0 7.37 0 3.74 0 0 Z " fill="#FBF8F1" transform="translate(85,263)"/>
<path d="M0 0 C0.99 0.33 1.98 0.66 3 1 C-3.12553567 17.29009642 -3.12553567 17.29009642 -8.4375 20.5 C-9.613125 20.995 -10.78875 21.49 -12 22 C-9.46506489 13.5502163 -5.47586037 6.86307833 0 0 Z " fill="#F7F4EE" transform="translate(73,139)"/>
<path d="M0 0 C1.65 0 3.3 0 5 0 C5 6.27 5 12.54 5 19 C3.35 19 1.7 19 0 19 C0 12.73 0 6.46 0 0 Z " fill="#5F5E5C" transform="translate(226,259)"/>
<path d="M0 0 C4.96140578 1.26919683 7.88625668 2.87886913 11 7 C11.3125 10.8125 11.3125 10.8125 11 14 C6.52167812 12.46457536 2.19572974 10.39145948 0 6 C-0.039992 4.00039988 -0.04346799 1.99952758 0 0 Z " fill="#E0DED8" transform="translate(184,56)"/>
<path d="M0 0 C0 2.31 0 4.62 0 7 C-3.40327492 8.2762281 -6.52102359 9.11354706 -10.125 9.4375 C-13.85489834 9.97893686 -15.34072031 10.45152363 -18 13 C-16.51828928 9.46608031 -14.54451438 7.40069674 -11.6875 4.875 C-10.92824219 4.19179687 -10.16898438 3.50859375 -9.38671875 2.8046875 C-3.41758958 -1.70879479 -3.41758958 -1.70879479 0 0 Z " fill="#868481" transform="translate(217,120)"/>
<path d="M0 0 C1.65 1.65 3.3 3.3 5 5 C2.5107319 7.38969738 1.09893865 7.98717462 -2.375 8.4375 C-6.57472447 7.9306367 -8.69968692 6.57585411 -12 4 C-10 2 -10 2 -7.6171875 1.8046875 C-6.71226562 1.82789062 -5.80734375 1.85109375 -4.875 1.875 C-3.50988281 1.90207031 -3.50988281 1.90207031 -2.1171875 1.9296875 C-1.41851562 1.95289062 -0.71984375 1.97609375 0 2 C0 1.34 0 0.68 0 0 Z " fill="#545351" transform="translate(195,70)"/>
<path d="M0 0 C1.32 0 2.64 0 4 0 C4 5.94 4 11.88 4 18 C2.68 18 1.36 18 0 18 C0 12.06 0 6.12 0 0 Z " fill="#444342" transform="translate(111,260)"/>
<path d="M0 0 C0.33 0 0.66 0 1 0 C1.16682272 4.92127034 1.24828052 8.50343896 -1 13 C-1.66 13 -2.32 13 -3 13 C-3.433125 14.423125 -3.433125 14.423125 -3.875 15.875 C-5 19 -5 19 -7 21 C-7.33 20.67 -7.66 20.34 -8 20 C-7.62670141 14.56341508 -6.10932457 10.77462698 -3.4375 6.0625 C-2.79683594 4.91910156 -2.15617188 3.77570312 -1.49609375 2.59765625 C-0.75552734 1.31181641 -0.75552734 1.31181641 0 0 Z " fill="#C4C2BC" transform="translate(250,44)"/>
<path d="M0 0 C-0.3125 1.9375 -0.3125 1.9375 -1 4 C-3.75078884 4.91692961 -5.35948913 5.10886083 -8.1875 5.0625 C-10.0746875 5.0315625 -10.0746875 5.0315625 -12 5 C-12.33 4.01 -12.66 3.02 -13 2 C-8.62836676 -0.42868513 -4.86219789 -1.62073263 0 0 Z " fill="#83827E" transform="translate(29,123)"/>
<path d="M0 0 C5.18004391 6.4528547 7.39567294 13.84158474 8 22 C6.35 20.35 4.7 18.7 3 17 C3.66 17 4.32 17 5 17 C4.72382467 15.05925139 4.72382467 15.05925139 4 13 C3.01 12.34 2.02 11.68 1 11 C1 9.68 1 8.36 1 7 C-0.42621684 4.28873616 -0.42621684 4.28873616 -2 2 C-1.34 2 -0.68 2 0 2 C0 1.34 0 0.68 0 0 Z " fill="#464543" transform="translate(35,109)"/>
<path d="M0 0 C2.79872437 2.52788007 4.45773019 4.20411134 5 8 C5.66 8 6.32 8 7 8 C9.3992233 12.64849515 9.19957409 16.91086074 9 22 C6.54958797 18.32438195 5.03953056 14.5142466 3.375 10.4375 C3.05015625 9.65697266 2.7253125 8.87644531 2.390625 8.07226562 C2.08382812 7.32525391 1.77703125 6.57824219 1.4609375 5.80859375 C1.18040527 5.12595459 0.89987305 4.44331543 0.61083984 3.73999023 C0 2 0 2 0 0 Z " fill="#CDCAC5" transform="translate(31,96)"/>
<path d="M0 0 C2.93615387 2.93615387 3.9109364 4.95088315 4.265625 9.12890625 C4.26046875 10.26199219 4.2553125 11.39507812 4.25 12.5625 C4.25515625 13.69816406 4.2603125 14.83382812 4.265625 16.00390625 C4 19 4 19 2 22 C-0.55259294 19.44740706 -0.00398924 13.77161581 -0.0625 10.421875 C-0.0625 6.94735579 -0.04336765 3.47423033 0 0 Z " fill="#DDDBD5" transform="translate(207,48)"/>
<path d="M0 0 C1.1875 1.5625 1.1875 1.5625 2 4 C0.625 7.75 0.625 7.75 -1 11 C-0.01 11 0.98 11 2 11 C0.35 12.65 -1.3 14.3 -3 16 C-2.67 16.99 -2.34 17.98 -2 19 C-3.98 19.66 -5.96 20.32 -8 21 C-7.33228278 17.7364383 -6.12056281 15.12331568 -4.5625 12.1875 C-2.4945327 8.15317072 -1.05240431 4.40096349 0 0 Z " fill="#4A4947" transform="translate(63,149)"/>
<path d="M0 0 C-1.44253657 3.36591866 -3.33264727 5.51047079 -6 8 C-7.32 6.68 -8.64 5.36 -10 4 C-9.67 3.01 -9.34 2.02 -9 1 C-5.8035914 -0.06546953 -3.34252724 -0.07427838 0 0 Z " fill="#9B9A95" transform="translate(245,104)"/>
<path d="M0 0 C2.67240285 3.84905783 1.89297862 7.49470815 1.25 11.875 C1.11851562 12.91720703 1.11851562 12.91720703 0.984375 13.98046875 C0.21913906 19.62408378 -0.68836877 25.02398653 -4.625 29.375 C-5.40875 30.24125 -6.1925 31.1075 -7 32 C-7 28.8525253 -6.62585597 28.06125915 -5.125 25.4375 C-1.3968751 18.23243591 -0.86003422 10.9780497 -1 3 C-0.67 2.01 -0.34 1.02 0 0 Z " fill="#484846" transform="translate(234,51)"/>
<path d="M0 0 C0.66 0 1.32 0 2 0 C2.19491452 1.45736087 2.38069358 2.91594593 2.5625 4.375 C2.66691406 5.18710938 2.77132812 5.99921875 2.87890625 6.8359375 C3 9 3 9 2 11 C1.34 11 0.68 11 0 11 C-0.33 11.66 -0.66 12.32 -1 13 C-2.53690745 10.58959839 -3.09752136 9.49917715 -2.5390625 6.640625 C-2.23742187 5.85171875 -1.93578125 5.0628125 -1.625 4.25 C-1.32851562 3.45078125 -1.03203125 2.6515625 -0.7265625 1.828125 C-0.48679687 1.22484375 -0.24703125 0.6215625 0 0 Z " fill="#868581" transform="translate(69,123)"/>
<path d="M0 0 C3.35447625 1.17859976 5.83924737 2.1189965 8 5 C9.1875 8.1875 9.1875 8.1875 10 11 C7.19294916 10.91979855 5.51793117 10.54452763 3.5546875 8.48046875 C0 3.65625 0 3.65625 0 0 Z " fill="#83827E" transform="translate(45,78)"/>
<path d="M0 0 C3 1 3 1 5 4 C5.33 3.34 5.66 2.68 6 2 C6.66 2 7.32 2 8 2 C8.36923077 7.53846154 8.36923077 7.53846154 6.5 9.875 C5.7575 10.431875 5.7575 10.431875 5 11 C4.34 10.01 3.68 9.02 3 8 C2.34 8.66 1.68 9.32 1 10 C0.67 6.7 0.34 3.4 0 0 Z " fill="#767571" transform="translate(200,60)"/>
<path d="M0 0 C0.66 0 1.32 0 2 0 C2.36923077 5.41538462 2.36923077 5.41538462 0.5 8.375 C0.005 8.91125 -0.49 9.4475 -1 10 C-2.32 9.67 -3.64 9.34 -5 9 C-5 4.68381834 -2.86729652 3.07210341 0 0 Z " fill="#7F7D7A" transform="translate(233,91)"/>
<path d="M0 0 C-2.93273481 2.93273481 -6.30788349 3.18582158 -10.2734375 4.12109375 C-13.05380803 5.01734499 -14.79020626 6.12010437 -17 8 C-15.7016661 5.10371669 -14.54677947 2.9320396 -12 1 C-7.61044942 -0.62575948 -4.52553174 -1.37137326 0 0 Z " fill="#A9A7A2" transform="translate(216,125)"/>
<path d="M0 0 C3.93774177 -0.36630156 5.56539771 -0.30233203 8.875 2 C9.926875 2.99 9.926875 2.99 11 4 C10.67 4.66 10.34 5.32 10 6 C4.50581395 6.36627907 4.50581395 6.36627907 2.1875 4.6875 C1 3 1 3 0 0 Z " fill="#EDEAE4" transform="translate(12,111)"/>
<path d="M0 0 C2.31 0 4.62 0 7 0 C7.5625 1.9375 7.5625 1.9375 8 4 C7 5 7 5 3.4375 5.0625 C2.303125 5.041875 1.16875 5.02125 0 5 C0 3.35 0 1.7 0 0 Z " fill="#EDEBE4" transform="translate(178,270)"/>
<path d="M0 0 C4.51854431 1.98972775 7.21445201 4.98122179 10 9 C10.875 11.9375 10.875 11.9375 11 14 C10.5875 13.4225 10.175 12.845 9.75 12.25 C7.98042645 9.97483401 6.07147622 8.00004601 4 6 C3.01 6.495 3.01 6.495 2 7 C0.5393715 4.35261084 0 3.10551666 0 0 Z " fill="#5C5B59" transform="translate(26,90)"/>
<path d="M0 0 C0.33 0 0.66 0 1 0 C1.16682272 4.92127034 1.24828052 8.50343896 -1 13 C-2.32 12.34 -3.64 11.68 -5 11 C-3.55049545 7.2089881 -1.84827434 3.6125362 0 0 Z " fill="#4F4E4C" transform="translate(250,44)"/>
<path d="M0 0 C1.83068697 3.13623664 2.29629308 5.50545549 2.3125 9.125 C2.32925781 9.99382812 2.34601563 10.86265625 2.36328125 11.7578125 C2.24339844 12.49773437 2.12351562 13.23765625 2 14 C1.01 14.66 0.02 15.32 -1 16 C-1.11138159 10.54230189 -0.91657981 5.38490641 0 0 Z " fill="#CAC8C2" transform="translate(67,78)"/>
<path d="M0 0 C0.66 0.99 1.32 1.98 2 3 C-2.455 8.94 -2.455 8.94 -7 15 C-7.66 14.67 -8.32 14.34 -9 14 C-8.34 13.01 -7.68 12.02 -7 11 C-6.60986284 9.0103005 -6.26797351 7.00980131 -6 5 C-5.34 5.66 -4.68 6.32 -4 7 C-1.90493748 3.55291141 -1.90493748 3.55291141 0 0 Z " fill="#504F4D" transform="translate(247,57)"/>
<path d="M0 0 C0.99 0.33 1.98 0.66 3 1 C2.02942868 4.26464899 1.40888319 5.71692702 -1.4375 7.6875 C-2.283125 8.120625 -3.12875 8.55375 -4 9 C-4.99 9.66 -5.98 10.32 -7 11 C-5.20974068 7.12110481 -3.03770253 3.03770253 0 0 Z " fill="#888682" transform="translate(73,139)"/>
<path d="M0 0 C0.6875 1.625 0.6875 1.625 1 4 C-0.4375 7.25 -0.4375 7.25 -2 10 C-2.66 9.67 -3.32 9.34 -4 9 C-3.34 7.35 -2.68 5.7 -2 4 C-3.1446875 4.7425 -3.1446875 4.7425 -4.3125 5.5 C-7 7 -7 7 -10 7 C-3.71428571 1.57142857 -3.71428571 1.57142857 0 0 Z " fill="#63625F" transform="translate(85,75)"/>
<path d="M0 0 C1.21236328 0.01353516 1.21236328 0.01353516 2.44921875 0.02734375 C3.37154297 0.04474609 3.37154297 0.04474609 4.3125 0.0625 C2.6625 1.7125 1.0125 3.3625 -0.6875 5.0625 C-0.6875 4.4025 -0.6875 3.7425 -0.6875 3.0625 C-3.6575 3.0625 -6.6275 3.0625 -9.6875 3.0625 C-6.66074696 0.03574696 -4.08749979 -0.05923913 0 0 Z " fill="#6B6A67" transform="translate(263.6875,52.9375)"/>
<path d="M0 0 C0.66 0.33 1.32 0.66 2 1 C1.505 1.969375 1.01 2.93875 0.5 3.9375 C-1.07331124 6.58132408 -1.07331124 6.58132408 -1 8 C-2.65 8 -4.3 8 -6 8 C-5.65120368 4.74456771 -4.97866739 3.98126893 -2.4375 1.75 C-1.633125 1.1725 -0.82875 0.595 0 0 Z " fill="#C5C2BD" transform="translate(65,159)"/>
<path d="M0 0 C0.66 0.66 1.32 1.32 2 2 C1.625 5.125 1.625 5.125 1 8 C0.01 8 -0.98 8 -2 8 C-3.68798827 9.43750191 -3.68798827 9.43750191 -5 11 C-3.77472971 6.94718288 -2.30119506 3.55639236 0 0 Z " fill="#E6E3DD" transform="translate(243,34)"/>
<path d="M0 0 C2 2 2 2 2.046875 4.34765625 C1.94890625 5.24355469 1.8509375 6.13945313 1.75 7.0625 C1.61851562 8.41021484 1.61851562 8.41021484 1.484375 9.78515625 C1.24460938 10.88150391 1.24460938 10.88150391 1 12 C0.01 12.495 0.01 12.495 -1 13 C-1 10.69 -1 8.38 -1 6 C-1.66 5.67 -2.32 5.34 -3 5 C-1.125 1.125 -1.125 1.125 0 0 Z " fill="#777672" transform="translate(245,30)"/>
<path d="M0 0 C1.45742463 -0.08096803 2.91612807 -0.13917774 4.375 -0.1875 C5.18710938 -0.22230469 5.99921875 -0.25710937 6.8359375 -0.29296875 C7.55007812 -0.19628906 8.26421875 -0.09960938 9 0 C9.66 0.99 10.32 1.98 11 3 C10 4 10 4 7.1875 4.3125 C4 4 4 4 1.625 2 C0.820625 1.01 0.820625 1.01 0 0 Z " fill="#E6E3DD" transform="translate(186,73)"/>
<path d="M0 0 C0.66 0.33 1.32 0.66 2 1 C2 3.31 2 5.62 2 8 C-1.93673644 6.68775452 -4.22719294 5.08089673 -7 2 C-4.69 2.66 -2.38 3.32 0 4 C0 2.68 0 1.36 0 0 Z " fill="#605F5D" transform="translate(193,62)"/>
<path d="M0 0 C2.8290723 2.8290723 3.37611108 3.38144425 4 7 C3.34 6.67 2.68 6.34 2 6 C1.67 10.29 1.34 14.58 1 19 C0.67 19 0.34 19 0 19 C0 12.73 0 6.46 0 0 Z " fill="#504F4D" transform="translate(206,43)"/>
<path d="M0 0 C2.31 0 4.62 0 7 0 C6.67 1.32 6.34 2.64 6 4 C4.02 4 2.04 4 0 4 C0 2.68 0 1.36 0 0 Z " fill="#FDFAF3" transform="translate(178,263)"/>
<path d="M0 0 C0.66 0 1.32 0 2 0 C3.5078125 1.75 3.5078125 1.75 5.125 4 C5.66382813 4.7425 6.20265625 5.485 6.7578125 6.25 C7.16773438 6.8275 7.57765625 7.405 8 8 C5.2980567 7.63487253 3.41609148 7.30130763 1.1875 5.6875 C0 4 0 4 0 0 Z " fill="#CECCC6" transform="translate(30,112)"/>
<path d="M0 0 C0.33 0 0.66 0 1 0 C1.06058594 0.95261719 1.12117188 1.90523438 1.18359375 2.88671875 C1.26738281 4.14097656 1.35117187 5.39523438 1.4375 6.6875 C1.51871094 7.92886719 1.59992187 9.17023438 1.68359375 10.44921875 C1.94491317 13.38180337 2.34798379 16.13441617 3 19 C1.68 18.34 0.36 17.68 -1 17 C-0.67 11.39 -0.34 5.78 0 0 Z " fill="#333331" transform="translate(54,72)"/>
<path d="M0 0 C0.66 0.66 1.32 1.32 2 2 C2.66 1.67 3.32 1.34 4 1 C3.5206753 5.31392226 2.2542015 7.16569547 -1 10 C-0.67 6.7 -0.34 3.4 0 0 Z " fill="#4B4A48" transform="translate(66,133)"/>
<path d="M0 0 C2.0625 0.1875 2.0625 0.1875 4 1 C4.33 1.99 4.66 2.98 5 4 C7.97 4.495 7.97 4.495 11 5 C11 5.33 11 5.66 11 6 C5.28341664 6.45732667 2.51350747 5.52273754 -2 2 C-1.34 1.34 -0.68 0.68 0 0 Z " fill="#5E5D5A" transform="translate(185,72)"/>
<path d="M0 0 C2.5 2.25 2.5 2.25 5 5 C5 6.32 5 7.64 5 9 C3.35 9 1.7 9 0 9 C-0.87890625 2.84765625 -0.87890625 2.84765625 -1 1 C-0.67 0.67 -0.34 0.34 0 0 Z " fill="#767572" transform="translate(232,45)"/>
<path d="M0 0 C1.74627478 2.61941217 2.38722388 4.03824877 3 7 C1.35 7 -0.3 7 -2 7 C-1.125 1.125 -1.125 1.125 0 0 Z " fill="#E0DDD7" transform="translate(31,264)"/>
<path d="M0 0 C0 0.66 0 1.32 0 2 C-2.91482778 2.80967438 -4.46113217 3.21845993 -7.3125 2.0625 C-7.869375 1.711875 -8.42625 1.36125 -9 1 C-5.57367167 -0.61798838 -3.61944899 -1.34053666 0 0 Z " fill="#DCDAD4" transform="translate(29,123)"/>
<path d="M0 0 C1.45792884 -0.05399736 2.91642712 -0.09279177 4.375 -0.125 C5.18710938 -0.14820312 5.99921875 -0.17140625 6.8359375 -0.1953125 C9 0 9 0 11 2 C8.36 2 5.72 2 3 2 C3.66 2.66 4.32 3.32 5 4 C4.01 4.33 3.02 4.66 2 5 C1.34 4.34 0.68 3.68 0 3 C0 2.01 0 1.02 0 0 Z " fill="#8A8985" transform="translate(10,110)"/>
<path d="M0 0 C0.66 0.99 1.32 1.98 2 3 C1.1875 4.9375 1.1875 4.9375 0 7 C-0.99 7.33 -1.98 7.66 -3 8 C-3.36923077 3.44615385 -3.36923077 3.44615385 -1.5 1.1875 C-1.005 0.795625 -0.51 0.40375 0 0 Z " fill="#A4A39E" transform="translate(74,83)"/>
<path d="M0 0 C2.18975773 3.28463659 2.99806563 6.20696275 4 10 C3.01 10 2.02 10 1 10 C-0.60725635 6.78548731 -0.05748185 3.56387464 0 0 Z " fill="#D9D7D1" transform="translate(202,65)"/>
<path d="M0 0 C0.33 0.66 0.66 1.32 1 2 C1.66 2 2.32 2 3 2 C2.625 4.4375 2.625 4.4375 2 7 C1.01 7.495 1.01 7.495 0 8 C0 7.34 0 6.68 0 6 C-0.66 6 -1.32 6 -2 6 C-1.34 4.02 -0.68 2.04 0 0 Z " fill="#ACAAA5" transform="translate(241,40)"/>
<path d="M0 0 C1.98 0.66 3.96 1.32 6 2 C5.01 2.66 4.02 3.32 3 4 C1.80767387 6.05003955 1.80767387 6.05003955 1 8 C-0.35439668 5.29120665 -0.06501451 2.99066732 0 0 Z " fill="#8B8985" transform="translate(184,56)"/>
<path d="M0 0 C0.66 0 1.32 0 2 0 C2.33 1.32 2.66 2.64 3 4 C2.34 4 1.68 4 1 4 C1.04125 5.11375 1.0825 6.2275 1.125 7.375 C1 11 1 11 -1 13 C-0.67 8.71 -0.34 4.42 0 0 Z " fill="#71706C" transform="translate(66,74)"/>
<path d="M0 0 C2.79908133 2.79908133 2.72362983 5.13081763 3 9 C2.34 9.66 1.68 10.32 1 11 C-0.20272819 8.59454362 -0.10071472 7.05003047 -0.0625 4.375 C-0.05347656 3.55773437 -0.04445312 2.74046875 -0.03515625 1.8984375 C-0.02355469 1.27195313 -0.01195312 0.64546875 0 0 Z " fill="#9D9B97" transform="translate(58,136)"/>
<path d="M0 0 C4.875 2.625 4.875 2.625 6 6 C4.35 5.67 2.7 5.34 1 5 C0.67 3.35 0.34 1.7 0 0 Z " fill="#ADABA6" transform="translate(49,83)"/>
<path d="M0 0 C0.33 0.99 0.66 1.98 1 3 C1.66 3.33 2.32 3.66 3 4 C2.01 4.495 2.01 4.495 1 5 C-0.13350534 7.01669827 -0.13350534 7.01669827 -1 9 C-1.66 8.34 -2.32 7.68 -3 7 C-2.34 7 -1.68 7 -1 7 C-1.20625 6.401875 -1.4125 5.80375 -1.625 5.1875 C-2 3 -2 3 0 0 Z " fill="#595855" transform="translate(207,68)"/>
<path d="M0 0 C0.33 0 0.66 0 1 0 C1.33 2.64 1.66 5.28 2 8 C0.35 6.35 -1.3 4.7 -3 3 C-2.34 3 -1.68 3 -1 3 C-0.67 2.01 -0.34 1.02 0 0 Z " fill="#7C7A77" transform="translate(41,123)"/>
<path d="M0 0 C2.97 0.33 5.94 0.66 9 1 C9 1.66 9 2.32 9 3 C6.21176345 4.0326802 5.1322726 4.04509293 2.25 3.0625 C1.5075 2.711875 0.765 2.36125 0 2 C0 1.34 0 0.68 0 0 Z " fill="#8A8884" transform="translate(13,115)"/>
<path d="M0 0 C2 1 2 1 3 3 C1.02 3.66 -0.96 4.32 -3 5 C-2.625 3.0625 -2.625 3.0625 -2 1 C-1.34 0.67 -0.68 0.34 0 0 Z " fill="#807E7B" transform="translate(58,165)"/>
<path d="M0 0 C0.66 0.66 1.32 1.32 2 2 C-0.97 3.65 -3.94 5.3 -7 7 C-7 6.34 -7 5.68 -7 5 C-5.46875 3.7109375 -5.46875 3.7109375 -3.5 2.375 C-2.8503125 1.92898437 -2.200625 1.48296875 -1.53125 1.0234375 C-1.0259375 0.68570313 -0.520625 0.34796875 0 0 Z " fill="#DCD9D3" transform="translate(82,78)"/>
<path d="M0 0 C0.99 1.32 1.98 2.64 3 4 C2.01 5.32 1.02 6.64 0 8 C-0.33 7.67 -0.66 7.34 -1 7 C-0.71269945 4.66055264 -0.38063221 2.3260857 0 0 Z " fill="#9B9995" transform="translate(243,57)"/>
<path d="M0 0 C0.66 0 1.32 0 2 0 C2.625 2.375 2.625 2.375 3 5 C2.34 5.66 1.68 6.32 1 7 C0.34 6.34 -0.32 5.68 -1 5 C-1 2 -1 2 0 0 Z " fill="#878682" transform="translate(247,50)"/>
</svg>
