<?xml version="1.0" encoding="UTF-8"?>
<svg version="1.1" viewBox="0 0 1180 1188" width="1280" height="1280" xmlns="http://www.w3.org/2000/svg">
<path transform="translate(0)" d="m0 0h1180v1188h-1180z" fill="#FEFDF6"/>
<path transform="translate(825,172)" d="m0 0 4 2 9 16 6 16 3 11v55l-4 10-6 8-2 6-3 26-3 14v18l27 9 15 6 18 10 16 11 5 4 10-13 11-12 5-5h3l1 12-2 10-4 8-9 10-1 2 11 14 2 3 5-1 19-5 5-1h15l-1 5-13 15-7 8-4 3h-3l6 16 6 22 2 19v17l-1 13-6 24-8 18-8 14-10 13-7 7-5 6-13 10-10 7-22 12-21 8h-3v2l17 4 20 6 24 10 19 11 14 11 7 6 7 8 10 12 12 21 5 12 6 20 3 28-2 25-6 25-8 19-7 13-9 14-10 12-7 8-4 4h-2v2l-8 7-13 9-15 9-23 11-20 6-22 5-26 4-34 3-17 1h-343v-17l36-2 15-3 13-5 9-7 8-9 5-11 3-14 2-18 1-23v-421l-1-24-3-23-4-14-6-10-10-9-15-7-13-3-12-1-28-1v-17h316l32 2 31 4 25 5-4-13-8-14-12-17-5-5-4 1-12 6-12 1-16-4-11-6-9-7v-3l12-3 12-1h16l12 2 1 2h-38l-7 1 1 3 13 1 3 2h-10l2 3 15 5 13 1 10-4 4-3v-2h-9l-20 2-4-2 21-3 5-2 3-1v-4l-4-2-8-7-17-10-12-9-6-8-3-7v-10h2l2 10 7 10 8 7 14 9 6 2-14-12-12-11-10-15-3-2-1-11 4 1 16 9 13 8 6 7 4 9 2 10 1 10 5 8 9 11 8 10 10 15 8 14 2 4 3-20-1-7-5-5-7-8-7-15-2-7-1-26-2-8 1-4 4 2 10 14 6 10 1-2v-36l1-46-1-8z" fill="#010101"/>
<path transform="translate(649,669)" d="m0 0h56l26 2 21 3 25 6 18 6 25 12 15 10 9 7 13 13 12 18 8 17 6 18 3 15 1 10v15l-2 18-6 20-4 10-14 22-19 19-24 16-19 8-15 5-32 7h-11l-4 1h-14l-4 1h-12l-47-3-45-7-10-2-1-1v-261l3-2 20-2z" fill="#FFFEF7"/>
<path transform="translate(686,373)" d="m0 0 32 1 31 5 18 4 27 11 12 7 18 13 3 3-1 5-12 20-12 19-10 22-10 30-5 27-1 12-1 19 2 23 2 13v-2l-1-14v-27l4-13 7-11 9-10 8-10 10-7 6-5 10-7 27-9 8-1v5l-6 2h6v5l-10 4-26 6-9 1h8l24-4 10-3h4l-1 20-4 20-8 20-8 13-8 11-13 13-13 9-16 8-21 7-21 4-27 3-22 1h-36l-34-2-31-4-1-1v-245l4-2 26-5 16-2z" fill="#FFFEF7"/>
<path transform="translate(226,250)" d="m0 0 3 1 8 13 4 9 2 8 1 16-3 19-5 19-6 20-1 7 5 16 7 25 3 19v17l4-4 7-9 9-14 2-5v-15l-5-15v-28l3-22 2-31 1-2 4 2 5 17 3 18 2 23 6-11 9-11 8-8 13-10 15-9 10-5h2l-1 10-7 17-6 9-8 8-13 8-14 6-10 4-3 3-6 24-5 14-10 19-11 16-5 7-7 30-10 30-11 29-11 33-6 25-5 32-2 20v12l2 26 5 30 2 8 3 1 4-16 9-27 8-16 11-21 8-14 5-9v-7l-11-20-5-13-1-11 2 4 5 14 8 13h3l3-6 4-16 5-33 7-31 6-16 4-4 2 1 3 10 2 5 1 9-4 15-5 12-8 14-7 12-4 16-4 21 3-3 10-16 10-13 7-11 11-12 8-7 6-7 9-20 21-49 23-54 11-26 5-11 1-4h2l-1 24h38l-3 9-23 54-9 21h90v36l-1 1h-106l-3 9-15 35-20 46-13 31-9 27-3 17v8l4 12 7 9 12 7 14 5 23 4 16 2 4 2v10l-1 8h-171l11 22 4 7-1 2-10-15-8-15-42-1-1-2v-16l7-3 24-6 2-2-3-8-5-26-2-20v-25l5-34 2-13v-18l-3-12-7-16-5-9-12-17-6-8-15-12-13-8-9-5h-2l-6 9-10 7-10 4-15 1-15-3-5-2 1-4 9-6 8-5 16-6 15-4-15-5-21-3-15-4-9-6-6-7-4-8-2-5v-6l15 2 17 2 10 4 10 9 7 11 3 6 8 5 14 8 16 9 16 12 9 8-4-16-4-10-4-3-11-4-6-4-5-5-7-8-8-13-4-9v-3h2l11 21 9 11 7 6 11 4h4v-2l-5-14-1-5h-2l-4-10-13-35-7-20-10-23-5-5 10 24 6 13 8 25 5 12v2l-3-1v-2h-2l-5-10-8-27-17-40-2-3 1-3 12 7 21 21 8 14 7 18 6 16 4 11v9l-2 8-1 5 6 17 6 30 7 14 10 13 13 25 1 6h2l1-7 11-32 10-26 6-18 4-14 4-19 1-9v-20l-3-21-6-23-6-18-2-2-1-5-2-1-2-4-3-2v-2h3l-1-4h3l-3-8v-37l2-18 5-24z" fill="#020202"/>
<path transform="translate(524,43)" d="m0 0h17l3 5 16 38 17 41 18 43 20 48 18 43 17 41v1h-103l-6-12-34-82-2-5-2 2-21 49-11 26-9 21-2 1h-48l4-10 13-30 23-54 27-63 23-54 15-35 5-12z" fill="#010101"/>
<path transform="translate(691,411)" d="m0 0 5 1 18 43 15 36 18 43 17 41 5 12v3l-8 2-19 3-22 2h-51l-7-14-13-32-5-12-1-5v-119l3-1z"/>
<path transform="translate(226,250)" d="m0 0 3 1 8 13 4 9 2 8 1 16-3 19-5 19-6 20-1 7 5 16 7 25 3 19v17l4-4 7-9 9-14 2-5v-15l-5-15v-28l3-22 2-31 1-2 4 2 5 17 3 18 2 23 6-11 9-11 8-8 13-10 15-9 10-5h2l-1 10-7 17-6 9-8 8-13 8-14 6-10 4-3 3-6 24-5 14-10 19-11 16-5 7-7 30-10 30-11 29-11 33-6 25-5 32-2 20h-1l-1-5-1-4 6-39v-18l-3-12-7-16-5-9-12-17-6-8-15-12-13-8-9-5h-2l-6 9-10 7-10 4-15 1-15-3-5-2 1-4 9-6 8-5 16-6 15-4-15-5-21-3-15-4-9-6-6-7-4-8-2-5v-6l15 2 17 2 10 4 10 9 7 11 3 6 8 5 14 8 16 9 16 12 9 8-4-16-4-10-4-3-11-4-6-4-5-5-7-8-8-13-4-9v-3h2l11 21 9 11 7 6 11 4h4v-2l-5-14-1-5h-2l-4-10-13-35-7-20-10-23-5-5 10 24 6 13 8 25 5 12v2l-3-1v-2h-2l-5-10-8-27-17-40-2-3 1-3 12 7 21 21 8 14 7 18 6 16 4 11v9l-2 8-1 5 6 17 6 30 7 14 10 13 13 25 1 6h2l1-7 11-32 10-26 6-18 4-14 4-19 1-9v-20l-3-21-6-23-6-18-2-2-1-5-2-1-2-4-3-2v-2h3l-1-4h3l-3-8v-37l2-18 5-24z" fill="#151515"/>
<path transform="translate(694,707)" d="m0 0 28 2 23 3 24 6 21 8 15 8 14 11 5 6h-181v-20l6-2 20-5 12-5 8-7z" fill="#030303"/>
<path transform="translate(980,120)" d="m0 0 4 1 3 15-2 18-3 11-8 16-9 13-11 13-9 11-3 5-1 2-2 27-3 19-5 18-4 12 17-10 6-4 9-8 3-5 2-11 2-15 4-12 8-16 14-24 8-19h4v14l-3 17-5 17-5 13 9-8 14-8 16-6 21-4 9-1h11l1 2-1 2h-2l-2 4-14 14-10 6-10 4-10 2h-24v-1l22-2 15-4 13-7 6-5h2l2-4 4-5 1-2-7 2-12 1-17 4-13 5-18 11-4 4-3 5-6 7-10 13-9 10-10 10-13 9-10 6-8 6-16 22-8 10-11 12-7 8-7 7-4 2 2-4 7-8 7-7 11-14 10-14 9-14 6-12 6-18 5-28 2-25-3-5-8-9-5-12-7-30v-12l2-1 5 5 10 18 5 12 2 11-4-4-3-10-5-9-9-16 2 13 4 17 5 14 6 8 1 1-1-5-8-22-1-7 2 2 5 14 5 9 7-21 6-16 10-20 12-19z" fill="#101010"/>
<path transform="translate(323,1038)" d="m0 0h42l13 4 9 6 6 8 4 11v15l-3 9-6 9-9 7-8 3-6 1-16 1h-26z" fill="#474748"/>
<path transform="translate(536,1037)" d="m0 0h21l12 5 10 9 6 10 2 6v16l-4 10-7 9-8 6-10 4-13 1-12-2-12-6-8-8-5-10-2-11 1-11 4-9 4-6 9-8z" fill="#474748"/>
<path transform="translate(695,1038)" d="m0 0h45l10 3 6 5 3 7v9l-6 9v3l6 5 4 10-1 9-4 6-5 4-5 2-6 1-18 1h-28l-1-1z" fill="#474748"/>
<path transform="translate(829,420)" d="m0 0 14 14 12 19 5 12 1 6-17 14-14 11-15 13-8 7-14 17-12 18h-1v-13l5-25 5-17 8-20 7-16 10-18 10-15z" fill="#FFFEF7"/>
<path transform="translate(267,294)" d="m0 0 4 2 5 17 3 18 2 23 6-11 9-11 8-8 13-10 15-9 10-5h2l-1 10-7 17-6 9-8 8-13 8-14 6-10 4-3 3-6 24-5 14-4 7-1-3v-15l-5-15v-28l3-22 2-31z" fill="#111"/>
<path transform="translate(119,1037)" d="m0 0h12l4 3 11 26 11 24 9 21-16 1-3-2-5-13h-35l-6 14-17 1 1-5 13-29 12-27 6-13z" fill="#464647"/>
<path transform="translate(40,438)" d="m0 0 15 2 17 2 10 4 10 9 7 11 3 6 8 5 14 8 16 9 16 12 9 8-2 2-15-12-13-8-9-5h-2l-6 9-10 7-10 4-15 1-15-3-5-2 1-4 9-6 8-5 16-6 15-4-15-5-21-3-15-4-9-6-6-7-4-8-2-5z" fill="#0F0F10"/>
<path transform="translate(206,1038)" d="m0 0h17l1 44 2 8 3 5 8 3h7l8-4 3-6 1-9 1-41h16v49l-3 10-6 8-10 6-8 2h-12l-10-3-8-5-5-6-4-10-1-7z" fill="#474748"/>
<path transform="translate(101,357)" d="m0 0 10 5 10 9 14 14 8 14 7 18 6 16 4 11v9l-2 8-1 5 6 17 6 30 7 14 10 13 13 25 1 6 4-2-1 9-6 31-4 35h-1l-1-5-1-4 6-39v-18l-3-12-7-16-5-9-12-17-5-7v-2h2l-4-13-4-12-5-5-11-4-6-4-5-5-7-8-8-13-4-9v-3h2l11 21 9 11 7 6 11 4h4v-2l-5-14-1-5h-2l-4-10-13-35-7-20-10-23-5-5 10 24 6 13 8 25 5 12v2l-3-1v-2h-2l-5-10-8-27-17-40-2-3z" fill="#0E0E0E"/>
<path transform="translate(1096,1036)" d="m0 0 15 1 13 5 1 2-4 10-3 1-13-4h-12l-5 3-2 3 1 5 9 4 18 5 10 6 4 7v11l-4 8-7 6-8 3-7 1-16-1-14-4-4-4 1-5 3-6h3l9 4 4 1h17l6-4v-6l-8-4-19-5-9-5-5-6-1-3v-11l4-8 7-6 8-3z" fill="#464647"/>
<path transform="translate(998,1036)" d="m0 0 13 1 12 4 2 3-4 11-5-1-11-3h-12l-5 3-2 3 1 5 9 4 18 5 10 6 4 7v12l-5 8-6 5-8 3-6 1h-10l-15-3-9-4-1-5 4-8h3l9 4 4 1h17l6-4v-6l-8-4-21-6-8-5-4-5-1-3v-11l4-8 7-6 9-3z" fill="#464647"/>
<path transform="translate(1e3 176)" d="m0 0 3 1v14l-3 17-5 17-5 13 9-8 14-8 16-6 21-4 9-1h11l1 2-1 2h-2l-2 4-14 14-10 6-10 4-10 2h-24v-1l22-2 15-4 13-7 6-5h2l2-4 4-5 1-2-7 2-12 1-17 4-13 5-18 11-4 4-3 5-6 7-10 13-9 10-6 6-3-1 6-8 2-11 2-15 4-12 8-16 14-24 8-19z" fill="#0D0D0E"/>
<path transform="translate(736,223)" d="m0 0 4 1 16 9 13 8 6 7 4 9 2 10 1 10 5 8 9 11 8 10 10 15 8 14 2 5h-3l-8-14-12-17-5-5-4 1-12 6-12 1-16-4-11-6-9-7v-3l12-3 12-1h16l12 2 1 2h-38l-7 1 1 3 13 1 3 2h-10l2 3 15 5 13 1 10-4 4-3v-2h-9l-20 2-4-2 21-3 5-2 3-1v-4l-4-2-8-7-17-10-12-9-6-8-3-7v-10h2l2 10 7 10 8 7 14 9 6 2-14-12-12-11-10-15-3-2z" fill="#141415"/>
<path transform="translate(541,1051)" d="m0 0h12l10 5 5 6 2 6v13l-5 10-8 6-6 2h-8l-9-3-7-7-3-6-1-5v-7l3-9 6-7z" fill="#FFFEF7"/>
<path transform="translate(809,1038)" d="m0 0h17v60h37v13l-53 1-1-1z" fill="#474748"/>
<path transform="translate(343,1051)" d="m0 0h13l11 2 6 4 5 6 2 4v15l-5 9-5 4-5 2-7 1h-17l-1-1v-45z" fill="#FFFEF7"/>
<path transform="translate(307,547)" d="m0 0 1 2-7 13-1 1-1 7-4 8-16 38-6 11-17 10-16 13-5 4 2-6 5-8 10-18 7-13 11-15 10-12 14-9-2-2h-3l-2 4-5 4-2-1 7-11h2l2-4z" fill="#FEFDF6"/>
<path transform="translate(108,366)" d="m0 0 5 3 6 12 10 25 10 28 6 16 3 10h2l4 10 4 13h-2l-2-2-2 1-11-4-10-9-8-11-9-17v-2l-3 1-4-9 1-3 14 7 13 9 2 1-1-6-6-16-8-24-11-24z" fill="#4E4E4F"/>
<path transform="translate(455,1037)" d="m0 0 4 1 1 5v68l-9 1h-7l-1-1v-73z" fill="#464647"/>
<path transform="translate(906,1038)" d="m0 0h17v73h-17z" fill="#474748"/>
<path transform="translate(227,257)" d="m0 0h2l8 16 2 6 1 7v16l-4 26-8 25-2 3-2-7 1-3 2-26 2-19 1-19v-15l-2 37-4 44h-2l-2-3v-45l3-27 3-15z" fill="#FFFEF7"/>
<path transform="translate(828,184)" d="m0 0 3 3 9 20 5 21v30l-2 15-6 12-4 2v-88l-2 62v11l-3-3-1-5v-14l1-21-1-6z" fill="#FFFEF7"/>
<path transform="translate(336,308)" d="m0 0h4l-1 6-6 12-7 10-8 7-16 10-14 6-5 1-1-2 4-6 12-16 11-11 14-10 10-6z" fill="#FBFAF3"/>
<path transform="translate(44,442)" d="m0 0h19l9 2 10 6 8 8 6 9v4l-4 1h-7l-18-4-10-5-10-8-3-5z" fill="#FFFEF7"/>
<path transform="translate(256,661)" d="m0 0 1 2-8 14-7 11-9 12-9 10-5 5-9 5h-3l1-6 9-25 5-9 10-6 16-8z" fill="#FFFEF7"/>
<path transform="translate(119,377)" d="m0 0 5 2 11 14 8 14 5 11 8 24 1 18-3 1-10-19-10-26-10-27-5-10z" fill="#FFFEF7"/>
<path transform="translate(177,310)" d="m0 0 7 1 14 11 8 7 9 11 1 3 2 1h-2l1 4h-3l5 5v3l3 1v5l-10-4-10-9-10-12-11-16-4-9z" fill="#1B1B1B"/>
<path transform="translate(982,130)" d="m0 0 2 1-1 13-4 18-10 21-10 14-8 10-2 3h-2l-2 4-4 3 1-7 7-13 8-14 16-32 6-14 2-6z" fill="#FFFEF7"/>
<path transform="translate(268,304)" d="m0 0h2l4 21 2 15v19l-3 22-3 11-2 1v-11l2-9-3 9-2-1-2-9v-21l3-19h2z" fill="#F1F0EA"/>
<path transform="translate(980,120)" d="m0 0 4 1 3 15-2 18-3 11-8 16-9 13-11 13-7 8-2-2 2-3h2l2-4 13-17 8-14 6-13 4-18 1-13-1-4-5 3-8 13-12 22-7 15-7 19-2-1 1-9 5-14 12-25 12-19z" fill="#131313"/>
<path transform="translate(998,190)" d="m0 0h2l-1 8-7 27-7 16-10 17-6 9-1-2v-13l6-18 12-23 8-12z" fill="#FFFEF7"/>
<path transform="translate(826,420)" d="m0 0 3 1-3 6-11 17-6 10-12 26-8 22-6 24-2 12v11l5-5-6 15-1 5v27l1 14 1 6-2-1-2-6-2-18-1-17 1-20 4-27 5-19 7-20 11-24 12-19 11-18z" fill="#141415"/>
<path transform="translate(712,1080)" d="m0 0h24l7 3 2 3v9l-4 3-3 1h-25l-2-2v-11z" fill="#FFFEF7"/>
<path transform="translate(740,228)" d="m0 0 5 1 20 11 6 7 5 12 1 13-4-2-8-7v-2l-4-2-8-8-9-12-4-7z" fill="#FFFEF7"/>
<path transform="translate(101,357)" d="m0 0 10 5 10 9 14 14 8 14 4 10v5h-2l-8-16-6-9-8-10-2-1v-2l-4-2-5-5-3-1 13 29 5 13 7 22 4 9v2l-3-1v-2h-2l-5-10-8-27-17-40-2-3z" fill="#0B0B0B"/>
<path transform="translate(112,486)" d="m0 0h3l-1 3-19 10-12 3-5 1 15-2 16-8 7-4h4l-2 6-5 5-14 7-6 1h-14l-7-2-3-3 10-7 17-6z" fill="#FFFEF7"/>
<path transform="translate(269,632)" d="m0 0h2l-2 5-3 6-3 8-5 6-10 7-23 13-1-2 6-10h3l1-5 5-5 9-8 13-10z" fill="#FFFEF7"/>
<path transform="translate(864,491)" d="m0 0h3v5l-6 2h6v5l-10 4-26 6-14 1 5-6 10-7 27-9z" fill="#F3F2EC"/>
<path transform="translate(113,437)" d="m0 0 5 2 6 7h4 4l5 2 6 7-1 2-1 4 2 4-6-5v-3l-4-2-1-2 1-2h-3v-2h-3l7 8 9 10 9 12v2l-7-1-9-6-9-10-8-13-6-12z" fill="#FEFDF6"/>
<path transform="translate(713,1050)" d="m0 0h17l9 2 2 2v11l-3 2-5 1h-20l-2-3v-9z" fill="#FFFEF7"/>
<path transform="translate(979,127)" d="m0 0h3v3l-2 1-7 17-12 25-10 19-7 11-5 3 2-5 11-28 14-27 10-16z" fill="#FFFEF7"/>
<path transform="translate(807,250)" d="m0 0 7 6 3 5v2h2l2 5-3 6 1 6 4 12 2 8v5l-4-2-6-7-5-10-3-11z" fill="#FEFDF6"/>
<path transform="translate(826,181)" d="m0 0 3 3-1 41 1 5-1 20v14l2 7 1 4 1 11-2 4-2 1-1 5-3 4-3-12h2v-3h2v-2h2l-1-6h-2l-1 5-2 1-1-8 4-8h3l-3-4v-36l1-42z" fill="#474748"/>
<path transform="translate(278,501)" d="m0 0 4 3 2 6v10l-6 17-4 9h-2v-3l-4-1v-9l5-22z" fill="#FFFEF7"/>
<path transform="translate(963,420)" d="m0 0h10l-1 6-6 8-11 9-1 1h-5l-2-4v-5l18-8 2-2-13 6-6 2-5-1-2-2v-4l18-5z" fill="#FFFEF7"/>
<path transform="translate(226,250)" d="m0 0 3 1 8 13 4 9 2 8 1 16-3 19-5 19-6 20-1 5-2-4 1-5 7-23 4-26v-16l-2-10-5-12-3-5v-2l-2 1-2 3-2-1 2-9z" fill="#0D0D0D"/>
<path transform="translate(825,172)" d="m0 0 4 2 9 16 6 16 3 11v50l-3 1v-40l-5-21-6-14-6-11-2-1-1-8z" fill="#0F0F0F"/>
<path transform="translate(182,315)" d="m0 0 7 4 9 10 1 1-3-5h3l11 15 7 6v2h-3l5 5 1 5-7-3-8-7-7-8-12-16-4-7z" fill="#FDFCF6"/>
<path transform="translate(123,1057)" d="m0 0 4 1 9 22v3h-23l1-5z" fill="#FFFEF7"/>
<path transform="translate(342,300)" d="m0 0h2l-1 10-3 1v-3l-8 3-14 8-13 11-9 9-7 11-4 3v-2l-2-1 6-10 12-13 13-11 13-8z" fill="#0E0E0E"/>
<path transform="translate(756,288)" d="m0 0h16l12 2 1 2h-38l-7 1 1 3 13 1 3 2h-10l2 3 15 5 13 1 3 1-2 2-10 1-16-4-11-6-9-7v-3l12-3z" fill="#121212"/>
<path transform="translate(108,366)" d="m0 0 5 3 6 12 10 25 10 28 6 16 3 10-4-4-4-9-7-15-8-25-5-12-12-27z" fill="#FFFEF7"/>
<path transform="translate(980,120)" d="m0 0h3v5l-7 6-12 21-12 23-9 24-2-1 1-9 5-14 12-25 12-19z" fill="#0F0F10"/>
<path transform="translate(279,492)" d="m0 0 3 1 3 10 2 5 1 9-4 15-5 12-3 3-5 2-2 5-3 4 1-16 5 1v3l2-1 4-11 5-14v-10l-3-7-2-1-3 7h-3l1-6 5-10z" fill="#131313"/>
<path transform="translate(914,156)" d="m0 0 5 3 12 22 5 14 1 7-4-4-3-10-5-9-9-16 2 13 4 17 3 11h-3l-4-12-5-23v-12z" fill="#111"/>
<path transform="translate(224,259)" d="m0 0h1v8l-3 21-2 24-1 23-2 3-1-2v-37l2-18 4-20z" fill="#0C0C0D"/>
<path transform="translate(105,365)" d="m0 0h3l13 30 5 12 8 25 4 9v2l-3-1v-2h-2l-5-10-8-27-15-36z" fill="#141414"/>
<path transform="translate(44,446)" d="m0 0 8 6 12 7 13 5 16 6-1 2h-7l-18-4-10-5-10-8-3-5z" fill="#FFFEF7"/>
<path transform="translate(935,371)" d="m0 0h1v8l-3 9-10 13-4 2-1-3 8-13v-2l-9 15-3-1 1-5 9-13 6-4z" fill="#FBFAF4"/>
<path transform="translate(803,239)" d="m0 0 4 2 10 14 6 10 3-4 1 6h-3l-1 5-2 3 1 7 2-5h2l1-2v8h-2v2h-2v3h-2l-4-11 1-5 2-5-1-4h-2l-4-7-5-5-1 20h-1l-1-20-2-2-1-9z" fill="#19191A"/>
<path transform="translate(269,632)" d="m0 0h2l-2 5-2 4h-3l-2 4-14 11-12 8h-3l2-5 5-5 14-12 9-6z" fill="#F0EFE9"/>
<path transform="translate(739,235)" d="m0 0 4 4 10 14 12 11 11 9 1 2-9-3-17-12-8-9-4-8z" fill="#FFFEF7"/>
<path transform="translate(1e3 176)" d="m0 0 3 1v7l-4 6-3 3-4 9-11 18-9 19-3 9-3-1 3-11 8-16 14-24 8-19z" fill="#161616"/>
<path transform="translate(107,428)" d="m0 0 10 4 18 12 2 1v-2h2l4 7 1 6-7-6-1-2-4-1h-4l-3-2-1 2-7-8-4-2-1 3-2-3-3-6z" fill="#474748"/>
<path transform="translate(860,475)" d="m0 0h3l3 9v3l-27 9-3-1 13-11 10-8z" fill="#FFFEF7"/>
<path transform="translate(231,544)" d="m0 0 4 1 5 5 7 10 4 10 1 11-1 16-2 1-1-6-1-22-5-13-4-6-2-1 1 9 6 16v5l-2-2-7-18-1-1-1-11z" fill="#1B1B1B"/>
<path transform="translate(339,311)" d="m0 0h3l-3 9-7 14-10 10-13 8-14 6-11 4v-3l13-5 12-6 14-10 6-7 7-12z" fill="#0D0D0E"/>
<path transform="translate(235,549)" d="m0 0 5 3 6 12 2 6v16l-4-4-7-20-2-6z" fill="#FFFEF7"/>
<path transform="translate(827,266)" d="m0 0 2 3 2 5 1 13-4 4-1 5-3 4-3-12h2v-3h2v-2h2l-1-6h-2l-1 5-2 1-1-8 4-8z" fill="#434344"/>
<path transform="translate(832,196)" d="m0 0 2 3v87h-3l-1-12v-14z" fill="#333334"/>
<path transform="translate(966,416)" d="m0 0h15l-1 5-7 8h-3l3-9-14 2-17 4v-4l19-5z" fill="#121212"/>
<path transform="translate(223,508)" d="m0 0h3l-3 10-11 30-7 23-3-1 2-9 10-29z" fill="#202021"/>
<path transform="translate(266,296)" d="m0 0h1v5h3v3h-2v28h-2l-2 19-2 5h-1l1-16 2-13z" fill="#29292A"/>
<path transform="translate(84,491)" d="m0 0 2 1 1 2-9 4-8 5 4 3 18 2v1l-6 1 3 2-13-1-12-3-1-4 10-7 8-5z" fill="#1A1A1A"/>
<path transform="translate(980,130)" d="m0 0 2 1-3 9-17 35-11 21-4 6-2-2 8-14 15-29 10-23z" fill="#242425"/>
<path transform="translate(147,412)" d="m0 0 2 2 7 19 4 11v9l-2 8-2 3-2-3 2-1-1-18-9-26z" fill="#1C1C1C"/>
<path transform="translate(189,318)" d="m0 0 5 1 9 7 8 9 5 6v2l2 1-3 1-8-7-9-13v2l5 6-1 2-11-12z" fill="#444"/>
<path transform="translate(226,250)" d="m0 0 3 1 8 13 4 9 1 7-2 1v-2h-2l-5-13-4-7v-2l-2 1-2 3-2-1 2-9z" fill="#161616"/>
<path transform="translate(863,504)" d="m0 0 3 1 2 2-19 5-19 3h-13v-1l24-4 19-5z" fill="#222223"/>
<path transform="translate(116,372)" d="m0 0 5 5h-2l8 17 10 28-4-1-9-26-9-21z" fill="#222"/>
<path transform="translate(262,355)" d="m0 0h1l1 17 2 9 4-11h1l-1 9-1 3-1 11-3-2-4-14v-21z" fill="#0D0D0D"/>
<path transform="translate(756,288)" d="m0 0h16l12 2 1 2h-24l-18-1 1-2z" fill="#151515"/>
<path transform="translate(913,157)" d="m0 0 3 4 2 15 4 17 3 11h-3l-4-12-5-23z" fill="#1E1E1F"/>
<path transform="translate(739,227)" d="m0 0 2 1 1 6 4 6 10 13 7 7 8 7 4 5-4-2-11-10-8-7-11-15-4-4v-5z" fill="#474748"/>
<path transform="translate(803,239)" d="m0 0 4 2 7 10-2 4-4-4-1 20h-1l-1-20-2-2-1-9z" fill="#252525"/>
<path transform="translate(194,338)" d="m0 0h4l6 8 7 7 8 4h3v5l-10-4-10-9-8-10z" fill="#1A1A1B"/>
<path transform="translate(931,371)" d="m0 0 2 3-10 10-6 8-4 2-1 2-2-1 9-13 8-9z" fill="#191919"/>
<path transform="translate(981,215)" d="m0 0 3 1-11 23-3 9-3-1 3-11 8-16z" fill="#181819"/>
<path transform="translate(45,446)" d="m0 0 5 2 14 9 12 5 19 7v1l-7-1-17-6-16-8-9-7z" fill="#3F3F40"/>
<path transform="translate(132,446)" d="m0 0 5 2 6 7-1 2-1 4 2 4-6-5v-3l-4-2-1-2 1-2h-3l1-4z" fill="#FBFAF3"/>
<path transform="translate(829,278)" d="m0 0h1v9l-3 9-3 4-3-12h2v-3h2v-2h2v-4z" fill="#494949"/>
<path transform="translate(832,196)" d="m0 0 2 3v39l-3 1z" fill="#454546"/>
<path transform="translate(40,438)" d="m0 0 15 2v1l-10 1v8l3 5 5 5-1 3-5-5-4-6-3-8z" fill="#2A2A2A"/>
<path transform="translate(112,439)" d="m0 0h2l11 21 7 9-3 1-9-12-8-16z" fill="#2B2B2B"/>
<path transform="translate(195,604)" d="m0 0 2 3-4 37h-1l-1-5-1-4z" fill="#1E1E1E"/>
<path transform="translate(112,489)" d="m0 0 3 1-4 3-15 8-15 3h-7l4-2 14-3 17-8z" fill="#232324"/>
<path transform="translate(827,232)" d="m0 0h1v34l-4-3v-16z" fill="#474748"/>
<path transform="translate(990,210)" d="m0 0h1l-1 7-9 21-7 16-4 3 6-15 7-15 6-13z" fill="#2C2C2D"/>
<path transform="translate(736,223)" d="m0 0 4 1 16 9 13 8-2 2-9-6-19-10v5l-2-3z" fill="#171717"/>
<path transform="translate(45,441)" d="m0 0h22l13 4 6 4-2 4-8-6-7-3-6-1-18-1z" fill="#161617"/>
<path transform="translate(267,318)" d="m0 0h1v14h-2l-2 19-2 5h-1l1-16 2-13 2 3z" fill="#1F1F1F"/>
<path transform="translate(251,661)" d="m0 0 2 1-1 3-17 9-9 4-1-2 18-10z" fill="#19191A"/>
<path transform="translate(273,508)" d="m0 0 1 3-5 22-3-1 2-12 3-11z" fill="#191919"/>
<path transform="translate(777,564)" d="m0 0h1l1 27 1 14 1 6-2-1-2-6-1-14v-22z" fill="#383839"/>
<path transform="translate(826,420)" d="m0 0 3 1-3 6-11 17-3 3-1-2 14-23z" fill="#202020"/>
<path transform="translate(265,409)" d="m0 0 2 2-9 16-9 12-2-2 6-9 7-9z" fill="#282829"/>
<path transform="translate(891,347)" d="m0 0v3l-11 12-8 7v-3l9-10z" fill="#131313"/>
<path transform="translate(210,547)" d="m0 0h1l-1 7-5 17-3-1 2-9 4-12z" fill="#222223"/>
<path transform="translate(818,272)" d="m0 0 3 3 1 7 2-5h2l1-2v8h-2v2h-2v3h-2l-4-11z" fill="#29292A"/>
<path transform="translate(994,194)" d="m0 0h2l-2 7-7 10-2 4h-3l2-5 9-15z" fill="#121212"/>
<path transform="translate(805,250)" d="m0 0h1l1 21 4 15 1 4-3-1-4-12z" fill="#040404"/>
<path transform="translate(183,319)" d="m0 0 4 5 10 13-4 1-11-15z" fill="#212121"/>
<path transform="translate(226,250)" d="m0 0 3 1 5 9-4 1-1-4-2 1-2 3-2-1 2-9z" fill="#1F1F1F"/>
<path transform="translate(959,174)" d="m0 0 2 3-10 19-4 6-2-2 8-14z" fill="#3C3C3D"/>
<path transform="translate(278,507)" d="m0 0h1v11l-3 10-1 9-3 1 2-13 2-8 1-9z" fill="#2C2C2D"/>
<path transform="translate(235,328)" d="m0 0 2 4-7 23-1 5-2-4 1-5z" fill="#3D3D3E"/>
<path transform="translate(863,504)" d="m0 0 3 1 2 2-19 5h-2l1-3z" fill="#1E1E1E"/>
<path transform="translate(233,486)" d="m0 0 1 2-7 19-3 1 2-8 4-12z" fill="#151515"/>
<path transform="translate(116,372)" d="m0 0 5 5h-2l8 17v5l-2-1-10-25z" fill="#272728"/>
<path transform="translate(967,424)" d="m0 0 2 1-8 5-11 5h-3l-1 3-2-5 15-5z" fill="#363637"/>
<path transform="translate(955,283)" d="m0 0 3 1-11 9-11 6 1-4 12-7z" fill="#222"/>
<path transform="translate(825,220)" d="m0 0h1l1 7 2 3-3 12-1 5h-1v-20z" fill="#0A0A0A"/>
<path transform="translate(846,244)" d="m0 0h1v23l-3 1v-10l1-13z" fill="#202020"/>
<path transform="translate(1025,241)" d="m0 0 3 1 1 2-6 1h-24v-1l22-2z" fill="#1A1A1B"/>
<path transform="translate(249,573)" d="m0 0h2l1 8-1 16-2 1z" fill="#101010"/>
<path transform="translate(245,561)" d="m0 0 4 4 2 5v3h-2v19h-1l-1-22z" fill="#2B2B2B"/>
<path transform="translate(737,236)" d="m0 0h2l2 10 4 6v2l-5-1-3-7z" fill="#1A1A1A"/>
<path transform="translate(826,181)" d="m0 0 3 3-1 15-3 1v-15z" fill="#3D3D3E"/>
<path transform="translate(824,268)" d="m0 0h2l-1 9-2 5-2 1-1-8z" fill="#FFFEF7"/>
<path transform="translate(239,310)" d="m0 0 2 1-1 9-3 10h-1v-8l2-11z" fill="#202021"/>
<path transform="translate(956,200)" d="m0 0 3 1-9 11-4 3v-3l1-2h2l2-4z" fill="#252526"/>
<path transform="translate(292,570)" d="m0 0 3 3-12 8-1-3 6-5 1-2z" fill="#222223"/>
<path transform="translate(267,543)" d="m0 0 5 4-2 6-4 5z" fill="#FFFEF7"/>
<path transform="translate(219,312)" d="m0 0h1v33l-2-1-1-6 1-3z" fill="#454546"/>
<path transform="translate(931,184)" d="m0 0 3 4 3 14-4-4-3-12z" fill="#313132"/>
<path transform="translate(195,604)" d="m0 0 2 3-2 17-3 1 2-16z" fill="#2B2B2C"/>
<path transform="translate(797,527)" d="m0 0 3 1-9 11-5 5 2-5z" fill="#2A2A2A"/>
<path transform="translate(973,233)" d="m0 0 1 4-4 11-3-1 3-11z" fill="#1C1C1D"/>
<path transform="translate(811,446)" d="m0 0 1 3-6 11-4 1 2-5z" fill="#161616"/>
<path transform="translate(979,236)" d="m0 0h2l-3 9-5 10-3 2 6-15z" fill="#353536"/>
<path transform="translate(739,227)" d="m0 0 2 1 1 6 4 6 1 4h-2l-5-8-3-2v-5z" fill="#393939"/>
<path transform="translate(213,696)" d="m0 0 1 4-6 16-1-3 4-15z" fill="#2E2E2E"/>
<path transform="translate(825,261)" d="m0 0 2 4v2h-3l-1 5-1 2-3-1 1-5 4-4z" fill="#0E0E0E"/>
<path transform="translate(913,157)" d="m0 0 3 4 1 14-3-1-1-5z" fill="#343435"/>
<path transform="translate(236,559)" d="m0 0 2 3 5 13v5l-2-2-6-15z" fill="#292929"/>
<path transform="translate(257,646)" d="m0 0 2 1-8 7-9 6-2-1 10-8z" fill="#2A2A2A"/>
<path transform="translate(130,470)" d="m0 0 4 1 7 6 2 1-1 3-6-4-5-5z" fill="#1A1A1B"/>
<path transform="translate(266,313)" d="m0 0 2 2-1 15-2 1v-17z"/>
<path transform="translate(107,428)" d="m0 0 6 2 2 6h-5l-3-5z" fill="#0D0D0E"/>
<path transform="translate(299,353)" d="m0 0 2 1-1 2-16 6v-3l13-5z" fill="#2F2F30"/>
<path transform="translate(339,311)" d="m0 0h3l-3 9-2 5-3-1 2-5z" fill="#1D1D1E"/>
<path transform="translate(105,365)" d="m0 0h3l4 10-1 3-3-3z" fill="#1C1C1C"/>
<path transform="translate(267,318)" d="m0 0h1v14h-2l-1 5-2 1 1-11 2 3z" fill="#363637"/>
<path transform="translate(915,173)" d="m0 0 3 3 2 12-3-1-2-8z" fill="#1A1A1A"/>
<path transform="translate(199,588)" d="m0 0 1 4-3 15h-1v-11z" fill="#1D1D1D"/>
<path transform="translate(44,451)" d="m0 0 7 6 2 4-2 2-7-9z" fill="#1D1D1D"/>
<path transform="translate(84,491)" d="m0 0 2 1 1 2-9 4-3-1 4-4z" fill="#181818"/>
<path transform="translate(831,271)" d="m0 0h1l2 7v8h-3l-1-12z" fill="#1A1A1B"/>
<path transform="translate(829,278)" d="m0 0h1v9l-3 6-1-3h-2l1-2 2-1 1-8z" fill="#FFFEF7"/>
<path transform="translate(126,448)" d="m0 0 4 1v2h3l1 4 3 2-1 3-9-9z" fill="#4C4C4D"/>
<path transform="translate(147,412)" d="m0 0 2 2 3 11h-3l-3-11z" fill="#222"/>
<path transform="translate(312,346)" d="m0 0m-2 1 2 1-1 3-8 4-3-1z" fill="#141414"/>
<path transform="translate(980,130)" d="m0 0 2 1-3 9-3 6-2-2 5-13z" fill="#343435"/>
<path transform="translate(214,535)" d="m0 0 1 4-3 9h-3l3-10z" fill="#151515"/>
<path transform="translate(742,297)" d="m0 0h12l3 2h-10l-1 2z" fill="#535353"/>
<path transform="translate(219,768)" d="m0 0 3 1 6 11-1 2-8-12z" fill="#2C2C2C"/>
<path transform="translate(927,383)" d="m0 0 1 2-6 10-3 3v-3l7-11z" fill="#3A3A3B"/>
<path transform="translate(231,344)" d="m0 0 1 4-3 12-2-4 1-5z" fill="#353536"/>
<path transform="translate(807,275)" d="m0 0h1l4 13-1 2-2-1-3-8z" fill="#1D1D1D"/>
<path transform="translate(810,257)" d="m0 0 3 3v2l3 1v8l-2-1-4-11z" fill="#2E2E2F"/>
<path transform="translate(747,243)" d="m0 0 5 5 3 4-1 3-6-7-2-4z" fill="#424243"/>
<path transform="translate(134,421)" d="m0 0 3 1 3 10h-3z" fill="#161617"/>
<path transform="translate(267,294)" d="m0 0 4 2 1 6-5-1z" fill="#0C0C0C"/>
<path transform="translate(755,233)" d="m0 0 10 5 4 4h-3l-10-6-2-2z" fill="#2D2D2E"/>
<path transform="translate(270,370)" d="m0 0h1l-1 9-2 7-2-4z" fill="#373738"/>
<path transform="translate(944,291)" d="m0 0h2l-2 4-8 4 1-4z" fill="#1A1A1A"/>
<path transform="translate(210,547)" d="m0 0h1l-1 7-2 4-2-1 3-9z" fill="#202021"/>
<path transform="translate(854,507)" d="m0 0 3 1-3 3-7 1 1-3z" fill="#131313"/>
<path transform="translate(112,439)" d="m0 0h2l5 11-4-2-3-6z" fill="#1B1B1B"/>
<path transform="translate(967,424)" d="m0 0 2 1-8 5-5 1 4-4z" fill="#282829"/>
<path transform="translate(829,297)" d="m0 0h2v10h-2l-1-2v-6z" fill="#949492"/>
<path transform="translate(826,275)" d="m0 0h1v8h-2v2h-2l1-8h2z" fill="#080808"/>
<path transform="translate(940,196)" d="m0 0 2 2-1 5-1 4-3 1v-5z" fill="#2E2E2F"/>
</svg>
